<svg width="85" height="51" viewBox="0 0 85 51" fill="none" xmlns="http://www.w3.org/2000/svg">
<path d="M35.2136 15.0632L34.1936 15.8054C33.1953 14.4869 31.9965 13.3312 30.6406 12.38L31.3504 11.3418C32.8261 12.3732 34.1298 13.629 35.2136 15.0632Z" fill="#011E41"/>
<path d="M30.2474 12.115C28.398 10.9056 26.3161 10.092 24.1338 9.72571L24.3272 8.48242C26.6951 8.87898 28.9535 9.76416 30.9572 11.0811L30.2474 12.115Z" fill="#20264A"/>
<path d="M23.6636 9.6481C21.631 9.36424 19.5626 9.47264 17.5712 9.96738L17.2461 8.7537C19.4063 8.21334 21.6514 8.09486 23.857 8.40482L23.6636 9.6481Z" fill="#25386B"/>
<path d="M17.1122 10.0903C15.3615 10.5821 13.7084 11.3688 12.2247 12.4162L11.4746 11.4182C13.0848 10.2732 14.8822 9.41477 16.7871 8.88086L17.1122 10.0903Z" fill="#2A428B"/>
<path d="M8.39982 16.2358L7.35645 15.5275C8.39299 14.0597 9.65507 12.7632 11.0964 11.6855L11.8423 12.7005C10.5169 13.6934 9.35539 14.8862 8.39982 16.2358Z" fill="#2C4B95"/>
<path d="M5.72491 22.7094L4.47754 22.5191C4.8758 20.1621 5.76541 17.9142 7.08916 15.9199L8.13254 16.6283C6.91545 18.4675 6.09559 20.5383 5.72491 22.7094Z" fill="#3A57A3"/>
<path d="M5.97543 29.2387L4.75355 29.5643C4.21161 27.4146 4.09255 25.181 4.40293 22.9863L5.65243 23.1787C5.36704 25.2006 5.47672 27.2582 5.97543 29.2387Z" fill="#4670B5"/>
<path d="M8.44012 34.558L7.42012 35.3107C6.27106 33.7077 5.40842 31.9195 4.87012 30.0247L6.09199 29.7012C6.58947 31.4419 7.38373 33.0848 8.44012 34.558Z" fill="#4F73B6"/>
<path d="M11.5644 39.405C10.0891 38.373 8.78552 37.1173 7.70117 35.6836L8.72117 34.9414C9.71954 36.2599 10.9183 37.4155 12.2742 38.3668L11.5644 39.405Z" fill="#578BC9"/>
<path d="M18.587 42.2698C16.2193 41.8724 13.9611 40.9873 11.957 39.6712L12.6689 38.6309C14.5165 39.8423 16.5982 40.6561 18.7804 41.0202L18.587 42.2698Z" fill="#6A97CF"/>
<path d="M25.6675 41.993C23.5073 42.5334 21.2622 42.6519 19.0566 42.3419L19.25 41.0986C21.2826 41.3824 23.3511 41.274 25.3424 40.7793L25.6675 41.993Z" fill="#76A7DA"/>
<path d="M31.4355 39.3383C29.8248 40.4823 28.0275 41.3407 26.123 41.8756L25.7979 40.6599C27.5487 40.1685 29.2019 39.3818 30.6854 38.334L31.4355 39.3383Z" fill="#92CBEF"/>
<path d="M20.1084 17.957H23.1811C23.9121 17.957 24.4668 18.1311 24.845 18.4793C25.2233 18.8275 25.4124 19.3307 25.4124 19.989C25.4262 20.3314 25.3531 20.6717 25.1999 20.9785C25.0426 21.2535 24.8154 21.4824 24.5411 21.6425C24.8042 21.6876 25.0582 21.7747 25.2934 21.9004C25.4895 22.0051 25.6617 22.1491 25.7991 22.3233C25.9288 22.4922 26.0241 22.6847 26.0796 22.89C26.1361 23.109 26.1639 23.3342 26.1625 23.5603C26.1693 23.898 26.1034 24.2332 25.9691 24.5435C25.8437 24.8227 25.6563 25.0699 25.4209 25.2666C25.1715 25.4705 24.8819 25.6204 24.5709 25.7064C24.2011 25.8099 23.8182 25.8598 23.434 25.8544H20.1084V17.957ZM22.1718 21.0568H22.55C23.196 21.0568 23.519 20.8016 23.519 20.2914C23.519 19.7811 23.196 19.5266 22.55 19.5281H22.1718V21.0568ZM22.1718 24.2623H22.6244C23.0071 24.2886 23.3903 24.2203 23.74 24.0635C23.8414 23.9913 23.9239 23.8961 23.9809 23.7858C24.0379 23.6754 24.0676 23.5532 24.0676 23.4292C24.0676 23.3051 24.0379 23.1829 23.9809 23.0726C23.9239 22.9623 23.8414 22.8671 23.74 22.7948C23.3906 22.637 23.0071 22.5687 22.6244 22.5961H22.1718V24.2623Z" fill="white"/>
<path d="M31.036 17.957V25.8544H28.9727V17.957H31.036Z" fill="white"/>
<path d="M33.9191 21.906C33.914 21.3432 34.0254 20.7854 34.2464 20.2673C34.4563 19.7698 34.7641 19.319 35.1516 18.9415C35.5488 18.5574 36.0191 18.2562 36.535 18.0556C37.677 17.6299 38.9353 17.6299 40.0774 18.0556C40.5968 18.2566 41.0713 18.5576 41.4735 18.9415C41.863 19.3183 42.1723 19.7691 42.383 20.2673C42.8194 21.3166 42.8194 22.4953 42.383 23.5446C42.1723 24.0428 41.863 24.4937 41.4735 24.8704C41.0713 25.2543 40.5968 25.5554 40.0774 25.7563C38.9353 26.182 37.677 26.182 36.535 25.7563C36.0191 25.5557 35.5488 25.2545 35.1516 24.8704C34.7641 24.4929 34.4563 24.0422 34.2464 23.5446C34.0252 23.0266 33.9138 22.4688 33.9191 21.906ZM36.0781 21.906C36.0748 22.205 36.1357 22.5013 36.2566 22.775C36.4883 23.2986 36.9171 23.7108 37.4509 23.9231C38.003 24.1374 38.6158 24.1374 39.1679 23.9231C39.4336 23.8177 39.6767 23.6626 39.884 23.4664C40.0915 23.2705 40.2576 23.0355 40.3728 22.775C40.4906 22.5003 40.5513 22.2047 40.5513 21.906C40.5513 21.6073 40.4906 21.3117 40.3728 21.0369C40.2576 20.7764 40.0915 20.5414 39.884 20.3455C39.5629 20.049 39.1641 19.8488 38.7336 19.768C38.3032 19.6872 37.8585 19.7291 37.4509 19.8888C37.1869 19.9941 36.9459 20.1492 36.7411 20.3455C36.5356 20.5421 36.371 20.7771 36.2566 21.0369C36.136 21.3108 36.0752 21.607 36.0781 21.906Z" fill="white"/>
<path d="M19.7494 32.1011C19.7385 31.2707 19.9833 30.4568 20.4509 29.7689C20.9186 29.081 21.5866 28.5519 22.3652 28.2529C23.5073 27.8272 24.7656 27.8272 25.9076 28.2529C26.4276 28.4518 26.9023 28.7523 27.3037 29.1367C27.698 29.5234 28.011 29.9843 28.2247 30.4925C28.4384 31.0007 28.5484 31.546 28.5484 32.0969C28.5484 32.6478 28.4384 33.1931 28.2247 33.7013C28.011 34.2095 27.698 34.6703 27.3037 35.0571C26.9024 35.4421 26.4277 35.7434 25.9076 35.943C24.7656 36.3687 23.5073 36.3687 22.3652 35.943C21.8492 35.7427 21.3789 35.4414 20.9819 35.0571C20.5949 34.68 20.2871 34.2301 20.0766 33.7335C19.8568 33.2172 19.7454 32.6617 19.7494 32.1011ZM21.9084 32.1011C21.9051 32.4001 21.9659 32.6964 22.0869 32.9701C22.3185 33.4937 22.7473 33.9059 23.2811 34.1183C23.8327 34.335 24.4465 34.335 24.9981 34.1183C25.2631 34.0126 25.5055 33.8576 25.7121 33.6616C25.9196 33.4657 26.0857 33.2306 26.2009 32.9701C26.3187 32.6954 26.3795 32.3998 26.3795 32.1011C26.3795 31.8024 26.3187 31.5068 26.2009 31.2321C26.0847 30.9722 25.9186 30.7373 25.7121 30.5407C25.5042 30.3458 25.2613 30.1915 24.996 30.0861C24.4444 29.8693 23.8306 29.8693 23.279 30.0861C22.7448 30.2967 22.3157 30.7085 22.0847 31.2321C21.9649 31.5061 21.9048 31.8023 21.9084 32.1011Z" fill="white"/>
<path d="M31.4248 36.0517V28.1543H33.4882L37.2983 32.9858V28.1543H39.3532V36.0517H37.2983L33.4882 31.2223V36.0517H31.4248Z" fill="white"/>
<path d="M49.9527 19.98C49.7507 19.8112 49.5234 19.675 49.279 19.5762C49.0716 19.4926 48.8504 19.4481 48.6267 19.4451C48.3944 19.4351 48.1652 19.5012 47.9743 19.6332C47.8948 19.6884 47.8301 19.7622 47.786 19.8481C47.7419 19.934 47.7197 20.0294 47.7214 20.1259C47.7167 20.2526 47.7616 20.3762 47.8468 20.4706C47.9422 20.5686 48.0544 20.6488 48.1783 20.7074C48.3272 20.7783 48.4823 20.8356 48.6415 20.8786C48.8137 20.9294 48.9837 20.9801 49.1516 21.0372C49.7211 21.1925 50.2361 21.5022 50.639 21.9316C50.9643 22.3488 51.13 22.8674 51.1065 23.3948C51.1102 23.7718 51.038 24.1456 50.894 24.4943C50.7625 24.8184 50.5574 25.1079 50.2948 25.3401C50.0124 25.5855 49.6827 25.7711 49.3258 25.8856C48.9059 26.0207 48.4666 26.0865 48.0253 26.0801C47.0253 26.0804 46.0504 25.7691 45.2373 25.19L46.1213 23.5344C46.3927 23.7832 46.7018 23.9879 47.0372 24.1412C47.3178 24.2702 47.6227 24.3386 47.9318 24.3421C48.2032 24.3633 48.4725 24.2801 48.6841 24.1095C48.8012 24.0096 48.8826 23.8746 48.9159 23.7247C48.9492 23.5748 48.9328 23.4183 48.8689 23.2785C48.8193 23.1819 48.7463 23.099 48.6564 23.0375C48.5377 22.9511 48.4085 22.88 48.2718 22.826C48.1146 22.7626 47.9212 22.6928 47.6981 22.6146C47.4303 22.53 47.1689 22.4391 46.9139 22.3376C46.6654 22.2406 46.4343 22.1043 46.2297 21.9337C46.0243 21.7594 45.859 21.543 45.7452 21.2994C45.6117 20.9944 45.5485 20.6635 45.5603 20.331C45.5565 19.9694 45.6229 19.6104 45.7558 19.2738C45.8787 18.9668 46.0647 18.6888 46.3019 18.4576C46.5522 18.221 46.8498 18.0394 47.1753 17.9248C47.5415 17.7953 47.9278 17.7316 48.3164 17.7366C48.7324 17.74 49.1464 17.7947 49.5489 17.8994C49.9777 18.0083 50.3916 18.1688 50.7814 18.3773L49.9527 19.98Z" fill="white"/>
<path d="M56.0359 21.2133L58.5519 17.957H61.1019L57.9547 21.6953L61.3972 25.8544H58.7219L56.0359 22.429V25.8544H53.9746V17.957H56.038L56.0359 21.2133Z" fill="white"/>
<path d="M63.0492 21.906C63.0377 21.0754 63.282 20.2613 63.7493 19.573C64.2165 18.8846 64.8844 18.3551 65.663 18.0556C66.805 17.6299 68.0633 17.6299 69.2053 18.0556C69.7244 18.2561 70.1983 18.5572 70.5993 18.9415C70.9888 19.3187 71.2987 19.7694 71.511 20.2673C71.9445 21.3171 71.9445 22.4948 71.511 23.5446C71.2987 24.0425 70.9888 24.4932 70.5993 24.8704C70.1983 25.2547 69.7244 25.5559 69.2053 25.7563C68.0633 26.182 66.805 26.182 65.663 25.7563C64.8856 25.455 64.2189 24.9251 63.752 24.2372C63.285 23.5493 63.0398 22.7361 63.0492 21.906ZM65.2061 21.906C65.2028 22.205 65.2636 22.5013 65.3846 22.775C65.5019 23.036 65.6686 23.2722 65.8755 23.4706C66.0805 23.6677 66.3223 23.8229 66.5873 23.9274C67.1387 24.1417 67.7509 24.1417 68.3022 23.9274C68.5682 23.8224 68.8114 23.6673 69.0183 23.4706C69.2258 23.2743 69.3925 23.0394 69.5092 22.7792C69.6271 22.5045 69.6878 22.2089 69.6878 21.9102C69.6878 21.6115 69.6271 21.3159 69.5092 21.0412C69.3925 20.781 69.2258 20.5461 69.0183 20.3497C68.6976 20.0534 68.2991 19.8533 67.869 19.7725C67.4389 19.6917 66.9946 19.7335 66.5873 19.893C66.3231 19.9971 66.0814 20.1507 65.8755 20.3455C65.6713 20.5433 65.5069 20.7779 65.391 21.0369C65.2682 21.3103 65.2052 21.6065 65.2061 21.906Z" fill="white"/>
<path d="M76.7851 25.8544H74.7217V17.957H78.0069C78.8994 17.957 79.5823 18.1868 80.0554 18.6463C80.5286 19.1059 80.7652 19.7557 80.7652 20.5958C80.7652 21.4332 80.5286 22.0823 80.0554 22.5432C79.5823 23.0042 78.8994 23.2346 78.0069 23.2346H76.7851V25.8544ZM76.7851 21.5812H77.4693C78.2279 21.5812 78.6062 21.2513 78.6062 20.5958C78.6062 19.9404 78.2279 19.6105 77.4693 19.6105H76.7851V21.5812Z" fill="white"/>
<path d="M44.6571 28.1543V34.3115H47.1306V36.0517H42.5938V28.1543H44.6571Z" fill="white"/>
<path d="M51.8368 28.1543V36.0517H49.7734V28.1543H51.8368Z" fill="white"/>
<path d="M55.0781 36.0517V28.1543H57.1415L60.9537 32.9858V28.1543H63.0065V36.0517H60.9537L57.1415 31.2223V36.0517H55.0781Z" fill="white"/>
<path d="M70.7625 29.8924H68.3103V31.2118H70.6265V32.9519H68.3103V34.3115H70.7625V36.0517H66.249V28.1543H70.7625V29.8924Z" fill="white"/>
</svg>
