<svg width="120" height="35" viewBox="0 0 120 35" fill="none" xmlns="http://www.w3.org/2000/svg">
<path d="M119.334 30.4129C119.334 32.245 117.806 33.7289 115.917 33.7289H4.08861C2.19999 33.7289 0.666992 32.245 0.666992 30.4129V3.96878C0.666992 2.13761 2.19999 0.648438 4.08861 0.648438H115.916C117.806 0.648438 119.333 2.13761 119.333 3.96878L119.334 30.4129Z" fill="#022E64"/>
<path d="M115.556 0.687805C117.613 0.687805 119.288 2.30679 119.288 4.2964V30.0797C119.288 32.0693 117.613 33.6883 115.556 33.6883H4.44444C2.38667 33.6883 0.712222 32.0693 0.712222 30.0797V4.2964C0.712222 2.30679 2.38667 0.687805 4.44444 0.687805H115.556ZM115.556 -0.000822573H4.44444C2.00111 -0.000822573 0 1.934 0 4.2964V30.0797C0 32.4421 2.00111 34.377 4.44444 34.377H115.556C117.999 34.377 120 32.4421 120 30.0797V4.2964C120 1.934 117.999 -0.000822573 115.556 -0.000822573Z" fill="#A6A6A6"/>
<path d="M26.78 17.0038C26.7542 14.2338 29.1258 12.8862 29.2342 12.8235C27.8911 10.9301 25.8093 10.6714 25.0778 10.6508C23.3293 10.4729 21.6333 11.6624 20.7426 11.6624C19.8342 11.6624 18.4626 10.668 16.9844 10.6972C15.0822 10.7256 13.3026 11.7904 12.3266 13.444C10.3124 16.8156 11.8146 21.7703 13.7444 24.4956C14.7098 25.8303 15.8378 27.3206 17.3142 27.2682C18.7586 27.2106 19.2982 26.3778 21.0413 26.3778C22.7684 26.3778 23.2751 27.2682 24.7809 27.2347C26.3311 27.2106 27.3071 25.8939 28.2386 24.5472C29.3542 23.0174 29.8022 21.5108 29.82 21.4334C29.7835 21.4214 26.8093 20.3239 26.78 17.0038Z" fill="white"/>
<path d="M23.9355 8.85802C24.7124 7.91864 25.244 6.64065 25.0964 5.34375C23.972 5.39188 22.5658 6.09576 21.756 7.01451C21.0395 7.82411 20.3995 9.15109 20.5649 10.399C21.828 10.4901 23.1249 9.78278 23.9355 8.85802Z" fill="white"/>
<path d="M47.6839 27.0762H45.6653L44.5595 23.7166H40.7159L39.6626 27.0762H37.6973L41.5053 15.6387H43.8573L47.6839 27.0762ZM44.2262 22.3071L43.2262 19.3205C43.1204 19.0154 42.9222 18.2969 42.6297 17.1659H42.5942C42.4777 17.6524 42.2902 18.3708 42.0324 19.3205L41.0502 22.3071H44.2262Z" fill="white"/>
<path d="M57.4769 22.8517C57.4769 24.2543 57.0849 25.363 56.3009 26.1769C55.5987 26.9014 54.7267 27.2632 53.6858 27.2632C52.5622 27.2632 51.7551 26.873 51.2636 26.0926H51.228V30.4371H49.3329V21.5445C49.3329 20.6627 49.3089 19.7577 49.2627 18.8295H50.9294L51.0351 20.1367H51.0707C51.7027 19.1518 52.6618 18.6602 53.9489 18.6602C54.9551 18.6602 55.7951 19.0443 56.4671 19.8135C57.1409 20.5836 57.4769 21.596 57.4769 22.8517ZM55.5463 22.9187C55.5463 22.116 55.3596 21.4542 54.9845 20.9334C54.5747 20.3902 54.0245 20.1186 53.3347 20.1186C52.8671 20.1186 52.4422 20.2699 52.0627 20.5681C51.6822 20.8689 51.4334 21.2617 51.3169 21.7481C51.2582 21.975 51.2289 22.1607 51.2289 22.3068V23.6819C51.2289 24.2818 51.4191 24.788 51.7996 25.2014C52.18 25.6148 52.6743 25.821 53.2822 25.821C53.996 25.821 54.5516 25.5546 54.9489 25.0235C55.3471 24.4915 55.5463 23.7902 55.5463 22.9187Z" fill="white"/>
<path d="M67.2876 22.8517C67.2876 24.2543 66.8956 25.363 66.1107 26.1769C65.4093 26.9014 64.5373 27.2632 63.4964 27.2632C62.3729 27.2632 61.5658 26.873 61.0751 26.0926H61.0396V30.4371H59.1444V21.5445C59.1444 20.6627 59.1204 19.7577 59.0742 18.8295H60.7409L60.8467 20.1367H60.8822C61.5133 19.1518 62.4724 18.6602 63.7604 18.6602C64.7658 18.6602 65.6058 19.0443 66.2796 19.8135C66.9507 20.5836 67.2876 21.596 67.2876 22.8517ZM65.3569 22.9187C65.3569 22.116 65.1693 21.4542 64.7942 20.9334C64.3844 20.3902 63.836 20.1186 63.1453 20.1186C62.6769 20.1186 62.2529 20.2699 61.8724 20.5681C61.492 20.8689 61.244 21.2617 61.1276 21.7481C61.0698 21.975 61.0396 22.1607 61.0396 22.3068V23.6819C61.0396 24.2818 61.2298 24.788 61.6084 25.2014C61.9889 25.6139 62.4831 25.821 63.0929 25.821C63.8067 25.821 64.3622 25.5546 64.7596 25.0235C65.1578 24.4915 65.3569 23.7902 65.3569 22.9187Z" fill="white"/>
<path d="M78.2566 23.8683C78.2566 24.8412 77.9073 25.6328 77.206 26.2438C76.4353 26.9116 75.3624 27.2451 73.9838 27.2451C72.7109 27.2451 71.6904 27.0079 70.918 26.5326L71.3571 25.0054C72.1891 25.4918 73.102 25.7359 74.0966 25.7359C74.8104 25.7359 75.366 25.5795 75.7651 25.2684C76.1624 24.9573 76.3606 24.5396 76.3606 24.0187C76.3606 23.5546 76.1971 23.1636 75.8691 22.8465C75.5429 22.5293 74.998 22.2345 74.2371 21.9621C72.166 21.2152 71.1313 20.1212 71.1313 18.6824C71.1313 17.7422 71.494 16.9713 72.2202 16.3714C72.9437 15.7706 73.9091 15.4707 75.1162 15.4707C76.1926 15.4707 77.0869 15.652 77.8006 16.0139L77.3269 17.5076C76.6602 17.1569 75.9064 16.9816 75.0629 16.9816C74.3962 16.9816 73.8753 17.1406 73.502 17.4569C73.1864 17.7396 73.0282 18.0843 73.0282 18.4925C73.0282 18.9446 73.2086 19.3184 73.5713 19.6124C73.8869 19.884 74.4602 20.1779 75.2922 20.495C76.31 20.8912 77.0575 21.3545 77.5384 21.8856C78.0175 22.415 78.2566 23.0776 78.2566 23.8683Z" fill="white"/>
<path d="M84.5218 20.2035H82.4329V24.2076C82.4329 25.2261 82.8009 25.7349 83.5387 25.7349C83.8774 25.7349 84.1583 25.7065 84.3805 25.6498L84.4329 27.0412C84.0596 27.1762 83.568 27.2441 82.9591 27.2441C82.2107 27.2441 81.6258 27.0232 81.2036 26.5823C80.7831 26.1405 80.5716 25.3997 80.5716 24.3589V20.2018H79.3271V18.8267H80.5716V17.3166L82.4329 16.7734V18.8267H84.5218V20.2035Z" fill="white"/>
<path d="M93.9474 22.8843C93.9474 24.152 93.5723 25.1928 92.8239 26.0067C92.039 26.8446 90.9972 27.2623 89.6986 27.2623C88.447 27.2623 87.4505 26.861 86.7074 26.0583C85.9643 25.2555 85.5928 24.2422 85.5928 23.021C85.5928 21.743 85.975 20.6962 86.7421 19.8823C87.5074 19.0675 88.5403 18.6602 89.839 18.6602C91.0905 18.6602 92.0977 19.0615 92.8577 19.8651C93.5848 20.6446 93.9474 21.651 93.9474 22.8843ZM91.9812 22.9436C91.9812 22.183 91.8132 21.5307 91.4728 20.9867C91.0754 20.3283 90.5074 20 89.7714 20C89.0097 20 88.431 20.3292 88.0337 20.9867C87.6932 21.5316 87.5252 22.1942 87.5252 22.978C87.5252 23.7386 87.6932 24.3909 88.0337 24.9341C88.4434 25.5924 89.0159 25.9207 89.7545 25.9207C90.4781 25.9207 91.0461 25.5856 91.4559 24.9169C91.8052 24.3626 91.9812 23.7034 91.9812 22.9436Z" fill="white"/>
<path d="M100.107 20.4409C99.919 20.4074 99.719 20.3902 99.5092 20.3902C98.8425 20.3902 98.327 20.6334 97.9643 21.1207C97.6488 21.5505 97.4905 22.0936 97.4905 22.7494V27.0767H95.5963L95.6141 21.4267C95.6141 20.4762 95.5901 19.6107 95.543 18.8303H97.1936L97.263 20.4083H97.3154C97.5154 19.866 97.831 19.4294 98.263 19.1019C98.6852 18.8071 99.1412 18.6602 99.6328 18.6602C99.8079 18.6602 99.9661 18.6722 100.107 18.6937V20.4409Z" fill="white"/>
<path d="M108.582 22.5627C108.582 22.891 108.56 23.1678 108.513 23.3938H102.828C102.85 24.2086 103.125 24.8317 103.653 25.2614C104.132 25.6456 104.751 25.8381 105.512 25.8381C106.354 25.8381 107.122 25.7083 107.813 25.4479L108.11 26.7199C107.302 27.0602 106.35 27.2295 105.25 27.2295C103.927 27.2295 102.889 26.8531 102.134 26.1011C101.38 25.3491 101.002 24.3392 101.002 23.0724C101.002 21.8288 101.353 20.7931 102.056 19.9672C102.792 19.0854 103.787 18.6445 105.038 18.6445C106.268 18.6445 107.198 19.0854 107.83 19.9672C108.331 20.6677 108.582 21.534 108.582 22.5627ZM106.775 22.0875C106.788 21.5443 106.664 21.075 106.407 20.6788C106.079 20.1692 105.575 19.9148 104.897 19.9148C104.278 19.9148 103.774 20.1632 103.389 20.6616C103.073 21.0579 102.886 21.5331 102.828 22.0866H106.775V22.0875Z" fill="white"/>
<path d="M43.6001 8.60319C43.6001 9.61475 43.2864 10.3762 42.6597 10.8876C42.0792 11.3594 41.2544 11.5958 40.1859 11.5958C39.6561 11.5958 39.2028 11.5734 38.8232 11.5287V6.00165C39.3184 5.9243 39.8517 5.88477 40.4277 5.88477C41.4455 5.88477 42.2126 6.09877 42.7299 6.52677C43.3095 7.01064 43.6001 7.70249 43.6001 8.60319ZM42.6179 8.62811C42.6179 7.97236 42.4384 7.46958 42.0792 7.11893C41.7201 6.76913 41.1957 6.59381 40.505 6.59381C40.2117 6.59381 39.9619 6.61271 39.7548 6.65225V10.8541C39.8695 10.8713 40.0792 10.879 40.3841 10.879C41.097 10.879 41.6472 10.6873 42.0348 10.304C42.4224 9.92072 42.6179 9.36208 42.6179 8.62811Z" fill="white"/>
<path d="M48.8081 9.48485C48.8081 10.108 48.6241 10.6185 48.2561 11.019C47.8703 11.4306 47.3592 11.636 46.721 11.636C46.1059 11.636 45.6161 11.4392 45.2508 11.0439C44.8863 10.6494 44.7041 10.1518 44.7041 9.55189C44.7041 8.9245 44.8917 8.40969 45.2685 8.01005C45.6454 7.61041 46.1521 7.41016 46.7903 7.41016C47.4054 7.41016 47.8997 7.60697 48.2739 8.00145C48.6294 8.38477 48.8081 8.87981 48.8081 9.48485ZM47.8419 9.51408C47.8419 9.14022 47.7583 8.81964 47.5921 8.55236C47.3965 8.22921 47.1183 8.06763 46.7565 8.06763C46.3823 8.06763 46.0979 8.22921 45.9023 8.55236C45.7352 8.81964 45.6525 9.14537 45.6525 9.53041C45.6525 9.90426 45.7361 10.2248 45.9023 10.4921C46.1041 10.8153 46.385 10.9768 46.7477 10.9768C47.1032 10.9768 47.3823 10.8127 47.5832 10.4835C47.7557 10.2111 47.8419 9.88793 47.8419 9.51408Z" fill="white"/>
<path d="M55.7908 7.49414L54.4797 11.5456H53.6264L53.0833 9.78628C52.9455 9.3471 52.8335 8.91051 52.7464 8.47735H52.7295C52.6486 8.92254 52.5366 9.35828 52.3926 9.78628L51.8157 11.5456H50.9526L49.7197 7.49414H50.6771L51.1508 9.42016C51.2655 9.87566 51.3597 10.3097 51.4353 10.7205H51.4522C51.5215 10.3819 51.6362 9.95043 51.7979 9.42875L52.3926 7.495H53.1517L53.7215 9.3875C53.8593 9.84902 53.9713 10.2934 54.0575 10.7214H54.0833C54.1464 10.3045 54.2415 9.86019 54.3677 9.3875L54.8762 7.495H55.7908V7.49414Z" fill="white"/>
<path d="M60.6201 11.5447H59.6886V9.22421C59.6886 8.50915 59.4077 8.15162 58.8441 8.15162C58.5677 8.15162 58.3446 8.2496 58.1713 8.44641C57.9997 8.64323 57.9126 8.87528 57.9126 9.14084V11.5439H56.981V8.65096C56.981 8.29515 56.9695 7.90926 56.9473 7.49157H57.7659L57.8095 8.12498H57.8353C57.9437 7.92817 58.1055 7.76573 58.3179 7.63596C58.5704 7.48469 58.853 7.4082 59.1624 7.4082C59.5535 7.4082 59.8788 7.53024 60.1375 7.77519C60.4593 8.07513 60.6201 8.5229 60.6201 9.11764V11.5447Z" fill="white"/>
<path d="M63.1894 11.5452H62.2588V5.63477H63.1894V11.5452Z" fill="white"/>
<path d="M68.6743 9.48485C68.6743 10.108 68.4903 10.6185 68.1223 11.019C67.7365 11.4306 67.2245 11.636 66.5872 11.636C65.9712 11.636 65.4814 11.4392 65.117 11.0439C64.7525 10.6494 64.5703 10.1518 64.5703 9.55189C64.5703 8.9245 64.7579 8.40969 65.1348 8.01005C65.5116 7.61041 66.0183 7.41016 66.6556 7.41016C67.2716 7.41016 67.765 7.60697 68.1401 8.00145C68.4956 8.38477 68.6743 8.87981 68.6743 9.48485ZM67.7072 9.51408C67.7072 9.14022 67.6236 8.81964 67.4574 8.55236C67.2628 8.22921 66.9836 8.06763 66.6228 8.06763C66.2476 8.06763 65.9632 8.22921 65.7685 8.55236C65.6014 8.81964 65.5188 9.14537 65.5188 9.53041C65.5188 9.90426 65.6023 10.2248 65.7685 10.4921C65.9703 10.8153 66.2512 10.9768 66.6139 10.9768C66.9694 10.9768 67.2476 10.8127 67.4485 10.4835C67.6219 10.2111 67.7072 9.88793 67.7072 9.51408Z" fill="white"/>
<path d="M73.1822 11.5441H72.3457L72.2764 11.0774H72.2506C71.9644 11.4495 71.5564 11.636 71.0266 11.636C70.6311 11.636 70.3111 11.5131 70.0702 11.2691C69.8515 11.0473 69.7422 10.7714 69.7422 10.444C69.7422 9.94895 69.9555 9.57166 70.3849 9.31039C70.8133 9.04912 71.416 8.92106 72.192 8.92707V8.85144C72.192 8.31773 71.9022 8.0513 71.3217 8.0513C70.9084 8.0513 70.544 8.15186 70.2293 8.35125L70.04 7.75995C70.4293 7.52704 70.9102 7.41016 71.4773 7.41016C72.5724 7.41016 73.1217 7.96879 73.1217 9.08607V10.5781C73.1217 10.9829 73.1422 11.3052 73.1822 11.5441ZM72.2151 10.1518V9.52697C71.1875 9.50978 70.6737 9.78222 70.6737 10.3434C70.6737 10.5549 70.7324 10.713 70.8524 10.8187C70.9724 10.9244 71.1253 10.9768 71.3075 10.9768C71.512 10.9768 71.7031 10.9141 71.8773 10.7895C72.0524 10.664 72.16 10.505 72.2 10.3099C72.2097 10.2661 72.2151 10.2128 72.2151 10.1518Z" fill="white"/>
<path d="M78.4756 11.5452H77.6489L77.6054 10.8946H77.5796C77.3156 11.3896 76.8658 11.6371 76.2338 11.6371C75.7289 11.6371 75.3085 11.4455 74.9751 11.0622C74.6418 10.6788 74.4756 10.1812 74.4756 9.57016C74.4756 8.91441 74.656 8.38327 75.0187 7.97761C75.3698 7.59946 75.8 7.41038 76.312 7.41038C76.8747 7.41038 77.2685 7.59344 77.4925 7.96042H77.5102V5.63477H78.4427V10.4537C78.4427 10.8482 78.4534 11.2117 78.4756 11.5452ZM77.5102 9.83659V9.16107C77.5102 9.04418 77.5014 8.94964 77.4845 8.87745C77.432 8.66087 77.3191 8.47867 77.1476 8.3317C76.9742 8.18474 76.7654 8.11083 76.5245 8.11083C76.1769 8.11083 75.9049 8.24404 75.7049 8.51133C75.5067 8.77861 75.4062 9.11981 75.4062 9.53664C75.4062 9.93714 75.5014 10.262 75.6925 10.5121C75.8942 10.7785 76.1662 10.9118 76.5067 10.9118C76.8125 10.9118 77.0569 10.8009 77.2427 10.5783C77.4222 10.3729 77.5102 10.1254 77.5102 9.83659Z" fill="white"/>
<path d="M86.4429 9.48485C86.4429 10.108 86.2589 10.6185 85.8909 11.019C85.5051 11.4306 84.9949 11.636 84.3558 11.636C83.7415 11.636 83.2518 11.4392 82.8855 11.0439C82.5211 10.6494 82.3389 10.1518 82.3389 9.55189C82.3389 8.9245 82.5264 8.40969 82.9033 8.01005C83.2802 7.61041 83.7869 7.41016 84.426 7.41016C85.0402 7.41016 85.5353 7.60697 85.9086 8.00145C86.2642 8.38477 86.4429 8.87981 86.4429 9.48485ZM85.4775 9.51408C85.4775 9.14022 85.394 8.81964 85.2278 8.55236C85.0313 8.22921 84.754 8.06763 84.3913 8.06763C84.018 8.06763 83.7335 8.22921 83.5371 8.55236C83.37 8.81964 83.2873 9.14537 83.2873 9.53041C83.2873 9.90426 83.3709 10.2248 83.5371 10.4921C83.7389 10.8153 84.0198 10.9768 84.3824 10.9768C84.738 10.9768 85.018 10.8127 85.2189 10.4835C85.3904 10.2111 85.4775 9.88793 85.4775 9.51408Z" fill="white"/>
<path d="M91.4513 11.5447H90.5206V9.22421C90.5206 8.50915 90.2397 8.15162 89.6753 8.15162C89.3989 8.15162 89.1757 8.2496 89.0033 8.44641C88.8308 8.64323 88.7446 8.87528 88.7446 9.14084V11.5439H87.8122V8.65096C87.8122 8.29515 87.8015 7.90926 87.7793 7.49157H88.5971L88.6406 8.12498H88.6664C88.7757 7.92817 88.9375 7.76573 89.1491 7.63596C89.4024 7.48469 89.6842 7.4082 89.9944 7.4082C90.3846 7.4082 90.71 7.53024 90.9686 7.77519C91.2913 8.07513 91.4513 8.5229 91.4513 9.11764V11.5447Z" fill="white"/>
<path d="M97.7209 8.16803H96.6952V10.1362C96.6952 10.6364 96.8774 10.8864 97.2383 10.8864C97.4054 10.8864 97.5441 10.8727 97.6534 10.8443L97.6774 11.5276C97.4934 11.5946 97.2516 11.6281 96.9538 11.6281C96.5858 11.6281 96.2996 11.5199 96.0925 11.3033C95.8845 11.0867 95.7814 10.7223 95.7814 10.2109V8.16803H95.1689V7.49336H95.7814V6.7508L96.6943 6.48438V7.4925H97.72V8.16803H97.7209Z" fill="white"/>
<path d="M102.653 11.5452H101.72V9.24185C101.72 8.51562 101.439 8.15208 100.877 8.15208C100.445 8.15208 100.15 8.36264 99.9879 8.78377C99.9603 8.87229 99.9443 8.98058 99.9443 9.10778V11.5443H99.0137V5.63477H99.9443V8.07645H99.9621C100.255 7.63211 100.676 7.41038 101.221 7.41038C101.607 7.41038 101.926 7.53242 102.179 7.77736C102.495 8.08246 102.653 8.53625 102.653 9.13614V11.5452Z" fill="white"/>
<path d="M107.74 9.32664C107.74 9.48821 107.728 9.62401 107.705 9.73488H104.912C104.924 10.1354 105.057 10.4405 105.316 10.6519C105.552 10.841 105.857 10.9355 106.231 10.9355C106.644 10.9355 107.021 10.8719 107.36 10.7439L107.506 11.3695C107.109 11.5363 106.641 11.6196 106.1 11.6196C105.451 11.6196 104.94 11.4349 104.57 11.0653C104.199 10.6957 104.015 10.1998 104.015 9.5776C104.015 8.96653 104.186 8.45774 104.532 8.05208C104.893 7.61892 105.381 7.40234 105.997 7.40234C106.6 7.40234 107.057 7.61892 107.367 8.05208C107.616 8.39586 107.74 8.82129 107.74 9.32664ZM106.851 9.09373C106.858 8.82644 106.797 8.59611 106.671 8.40188C106.509 8.15178 106.263 8.0263 105.929 8.0263C105.625 8.0263 105.377 8.14834 105.188 8.39328C105.033 8.58838 104.942 8.82129 104.912 9.09373H106.851Z" fill="white"/>
</svg>
