<svg width="20" height="20" viewBox="0 0 20 20" fill="none" xmlns="http://www.w3.org/2000/svg">
<path fill-rule="evenodd" clip-rule="evenodd" d="M10 19.6C12.5461 19.6 14.9879 18.5886 16.7882 16.7882C18.5886 14.9879 19.6 12.5461 19.6 10C19.6 7.45395 18.5886 5.01215 16.7882 3.2118C14.9879 1.41145 12.5461 0.400024 10 0.400024C7.45392 0.400024 5.01213 1.41145 3.21178 3.2118C1.41143 5.01215 0.400002 7.45395 0.400002 10C0.400002 12.5461 1.41143 14.9879 3.21178 16.7882C5.01213 18.5886 7.45392 19.6 10 19.6ZM14.4484 9.15162L10.8484 5.55162C10.6221 5.33303 10.319 5.21208 10.0043 5.21482C9.68968 5.21755 9.38871 5.34375 9.16622 5.56624C8.94373 5.78873 8.81753 6.08971 8.81479 6.40434C8.81206 6.71898 8.93301 7.0221 9.1516 7.24842L10.7032 8.80002H6.4C6.08174 8.80002 5.77652 8.92645 5.55147 9.1515C5.32643 9.37654 5.2 9.68176 5.2 10C5.2 10.3183 5.32643 10.6235 5.55147 10.8486C5.77652 11.0736 6.08174 11.2 6.4 11.2H10.7032L9.1516 12.7516C9.03699 12.8623 8.94557 12.9947 8.88268 13.1411C8.81979 13.2875 8.78668 13.445 8.7853 13.6043C8.78392 13.7637 8.81428 13.9217 8.87462 14.0692C8.93495 14.2166 9.02406 14.3506 9.13673 14.4633C9.2494 14.576 9.38338 14.6651 9.53086 14.7254C9.67833 14.7857 9.83635 14.8161 9.99568 14.8147C10.155 14.8133 10.3125 14.7802 10.4589 14.7173C10.6053 14.6545 10.7377 14.563 10.8484 14.4484L14.4484 10.8484C14.6734 10.6234 14.7997 10.3182 14.7997 10C14.7997 9.68183 14.6734 9.37666 14.4484 9.15162Z" fill="white"/>
</svg>
