<svg width="24" height="24" viewBox="0 0 24 24" fill="none" xmlns="http://www.w3.org/2000/svg">
<g clip-path="url(#clip0)">
<rect width="24" height="24" rx="12" fill="white"/>
<rect x="-3" y="-3" width="30" height="30" fill="white"/>
<path fill-rule="evenodd" clip-rule="evenodd" d="M5.98421 9.20117C5.97824 9.20117 5.97235 9.20117 5.96647 9.20117C5.17601 9.20117 4.41514 9.38469 3.67798 9.75482C3.37896 10.4653 3.21024 11.1877 3.20133 11.9249C3.18948 12.6561 3.34046 13.4052 3.67503 14.1691C4.44473 14.5035 5.21443 14.6753 5.98421 14.6842C6.7539 14.6753 7.52368 14.5035 8.29338 14.1691C8.62795 13.4052 8.77893 12.6561 8.76708 11.9249C8.75817 11.1877 8.58945 10.4653 8.29044 9.75482C7.55327 9.38469 6.7924 9.20117 6.00194 9.20117C5.99606 9.20117 5.99017 9.20117 5.98421 9.20117Z" fill="#FEFEFE"/>
<path d="M3.55365 9.59215C4.32931 9.19537 5.13457 9 5.96647 9C5.97236 9 5.97824 9 5.98421 9C5.99018 9 5.99606 9 6.00195 9C6.83385 9 7.63911 9.19537 8.41477 9.59215L8.46218 9.64242C8.77894 10.3885 8.95951 11.1494 8.96842 11.9221C8.96842 11.9369 8.96842 11.9487 8.96842 11.9635V12.0168C8.96548 12.76 8.80559 13.5179 8.46218 14.2877L8.40889 14.3379C7.60069 14.6962 6.79241 14.8768 5.98421 14.8857C5.17601 14.8768 4.36773 14.6962 3.55953 14.3379L3.50624 14.2877C3.16283 13.5179 3.00294 12.76 3 12.0168V11.9635C3 11.9487 3 11.9369 3 11.9221C3.00891 11.1494 3.18948 10.3885 3.50624 9.64242L3.55365 9.59215ZM5.98421 9.20133C5.97824 9.20133 5.97236 9.20133 5.96647 9.20133C5.17601 9.20133 4.41514 9.38485 3.67798 9.75498C3.37896 10.4655 3.21024 11.1879 3.20133 11.9251C3.18948 12.6563 3.34046 13.4053 3.67504 14.1692C4.44474 14.5037 5.21443 14.6755 5.98421 14.6844C6.75391 14.6755 7.52369 14.5037 8.29338 14.1692C8.62796 13.4053 8.77894 12.6563 8.76709 11.9251C8.75818 11.1879 8.58946 10.4655 8.29044 9.75498C7.55328 9.38485 6.79241 9.20133 6.00195 9.20133C5.99606 9.20133 5.99018 9.20133 5.98421 9.20133Z" fill="#003399"/>
<path fill-rule="evenodd" clip-rule="evenodd" d="M6.03756 13.5864C5.99612 13.0209 6.02277 12.4318 5.85396 11.8929C5.6971 11.3897 5.10201 11.1025 5.09015 10.5488C5.0783 10.1166 5.40699 9.61623 6.02277 9.61623C6.60004 9.61328 6.95824 10.0337 6.99968 10.5015C7.05004 11.0433 6.39282 11.4074 6.22108 11.9225C6.04345 12.4495 6.0938 13.0328 6.03756 13.5864Z" fill="#003399"/>
<path fill-rule="evenodd" clip-rule="evenodd" d="M6.26532 13.4499C6.24162 12.9585 6.24162 12.4877 6.3778 12.0702C6.52878 11.5965 6.84259 11.1969 7.32218 11.0666C7.65079 10.9778 8.13341 11.3627 8.0564 11.7564C7.99125 12.0732 7.6745 12.4463 7.16532 12.4877C6.92842 12.5085 6.8278 12.6979 6.67976 12.8075C7.34295 12.7423 7.77218 12.4817 8.0712 12.2094C8.11559 12.4403 8.14518 12.8282 7.96461 12.9614C7.60935 13.213 7.28074 13.0087 6.86327 13.1272C6.62941 13.1953 6.48439 13.3433 6.26532 13.4499Z" fill="#003399"/>
<path fill-rule="evenodd" clip-rule="evenodd" d="M5.81268 13.4499C5.83933 12.9585 5.83639 12.4877 5.70315 12.0702C5.55217 11.5965 5.23835 11.1969 4.75876 11.0666C4.43015 10.9778 3.9446 11.3627 4.02454 11.7564C4.08969 12.0732 4.40645 12.4463 4.91571 12.4877C5.14958 12.5085 5.25315 12.6979 5.40118 12.8075C4.73506 12.7423 4.30876 12.4817 4.00975 12.2094C3.96536 12.4403 3.93577 12.8282 4.11634 12.9614C4.4716 13.213 4.80021 13.0087 5.21767 13.1272C5.45154 13.1953 5.59361 13.3433 5.81268 13.4499Z" fill="#003399"/>
<path fill-rule="evenodd" clip-rule="evenodd" d="M7.39037 14.181V14.1011L7.44955 14.0863L7.39037 13.9974V13.8494L7.65686 14.2195L7.56212 14.2432L7.49697 14.1514L7.39037 14.181ZM7.39037 13.8494V13.9974L7.34893 13.9383L7.33119 14.1159L7.39037 14.1011V14.181L7.32228 14.1958L7.31043 14.3054L7.21569 14.3291L7.27789 13.8465L7.37263 13.8228L7.39037 13.8494ZM6.50811 14.4386V14.3616H6.52888C6.56141 14.3587 6.58217 14.3557 6.591 14.3527C6.60285 14.3498 6.61471 14.3409 6.62068 14.332C6.6295 14.3202 6.63253 14.3083 6.63253 14.2935C6.6295 14.2787 6.62656 14.2669 6.61765 14.258C6.61177 14.2491 6.59991 14.2432 6.58806 14.2402C6.57621 14.2373 6.54956 14.2373 6.50811 14.2402V14.1632C6.53182 14.1632 6.54662 14.1603 6.55258 14.1603C6.56738 14.1573 6.57923 14.1484 6.58806 14.1396C6.59697 14.1307 6.59991 14.1188 6.59697 14.104C6.59697 14.0892 6.591 14.0774 6.58217 14.0715C6.57621 14.0626 6.56435 14.0567 6.54662 14.0567C6.54073 14.0567 6.52888 14.0567 6.50811 14.0597V13.9827C6.54073 13.9797 6.56435 13.9797 6.57923 13.9827C6.59697 13.9827 6.61471 13.9886 6.6295 13.9974C6.6443 14.0034 6.65615 14.0152 6.668 14.0301C6.67691 14.0449 6.6828 14.0626 6.68574 14.0833C6.68877 14.104 6.6828 14.1248 6.67389 14.1425C6.66506 14.1603 6.65027 14.1751 6.6295 14.1869C6.65909 14.1929 6.6828 14.2047 6.6976 14.2225C6.71542 14.2402 6.72424 14.261 6.72719 14.2876C6.72719 14.3083 6.72424 14.3291 6.71836 14.3498C6.70945 14.3705 6.6976 14.3853 6.6828 14.4001C6.66506 14.412 6.64732 14.4208 6.62362 14.4268C6.60882 14.4297 6.57032 14.4326 6.51408 14.4386H6.50811ZM7.06765 14.1899L7.15945 14.2017C7.15356 14.2521 7.13877 14.2935 7.11212 14.3231C7.08547 14.3498 7.04697 14.3705 6.99956 14.3794C6.94037 14.3883 6.88708 14.3764 6.84269 14.3439C6.79528 14.3083 6.76863 14.258 6.75384 14.1869C6.74206 14.113 6.75089 14.0507 6.78351 14.0034C6.8131 13.956 6.86043 13.9264 6.92264 13.9146C6.97888 13.9056 7.02326 13.9146 7.06471 13.9412C7.08841 13.956 7.10909 13.9797 7.12389 14.0152L7.03806 14.0507C7.02923 14.0301 7.01435 14.0122 6.99661 14.0034C6.97593 13.9916 6.95517 13.9886 6.93146 13.9916C6.89893 13.9974 6.87522 14.0152 6.85749 14.0419C6.83975 14.0715 6.83672 14.11 6.84563 14.1632C6.85749 14.2195 6.87522 14.258 6.89893 14.2787C6.92264 14.2995 6.95223 14.3083 6.98476 14.3024C7.00847 14.2965 7.0262 14.2846 7.041 14.2669C7.05588 14.2491 7.06471 14.2225 7.06765 14.1899ZM6.50811 13.9827V14.0597C6.49634 14.0597 6.48449 14.0626 6.46969 14.0626L6.4164 14.0686L6.42523 14.1721L6.48743 14.1662C6.49332 14.1662 6.50223 14.1662 6.50811 14.1632V14.2402C6.50811 14.2402 6.50811 14.2402 6.50517 14.2402L6.43414 14.2462L6.44305 14.3675L6.50811 14.3616V14.4386L6.36008 14.4534L6.31863 14.0004L6.49929 13.9856C6.50223 13.9827 6.50517 13.9827 6.50811 13.9827ZM5.93673 14.2817V14.2047C5.95749 14.2047 5.96934 14.2017 5.97817 14.1988C5.99002 14.1958 5.99893 14.1869 6.00784 14.1781C6.01373 14.1662 6.01667 14.1544 6.01667 14.1425C6.0197 14.1248 6.01373 14.113 6.00482 14.1011C5.99599 14.0892 5.98414 14.0833 5.96934 14.0803C5.96043 14.0803 5.95152 14.0774 5.93673 14.0774V14.0004C5.9812 14.0004 6.00784 14.0034 6.02264 14.0093C6.04929 14.0152 6.06997 14.0301 6.08771 14.0537C6.10553 14.0774 6.11436 14.107 6.11141 14.1425C6.11141 14.1692 6.10553 14.1929 6.09662 14.2136C6.08476 14.2314 6.07291 14.2462 6.05812 14.258C6.04038 14.2669 6.02558 14.2728 6.00784 14.2787C5.99002 14.2817 5.9664 14.2817 5.93673 14.2817ZM5.93673 14.0004V14.0774C5.9279 14.0774 5.91605 14.0774 5.90125 14.0774L5.85686 14.0744V14.2047H5.90419C5.91605 14.2047 5.9279 14.2047 5.93673 14.2047V14.2817C5.93084 14.2817 5.92193 14.2817 5.9131 14.2817H5.85384L5.8509 14.4534L5.7591 14.4504L5.76801 13.9974L5.9131 14.0004C5.92193 14.0004 5.93084 14.0004 5.93673 14.0004ZM5.0812 14.2373V14.0982C5.10785 14.104 5.12559 14.104 5.1345 14.104C5.14635 14.1011 5.15518 14.0982 5.16409 14.0892C5.16997 14.0803 5.17594 14.0715 5.17888 14.0567C5.18183 14.0419 5.17888 14.0301 5.17292 14.0182C5.16703 14.0064 5.15518 14.0004 5.14038 13.9945C5.1345 13.9916 5.11373 13.9886 5.0812 13.9827V13.9056L5.1197 13.9116C5.16703 13.9205 5.19956 13.9294 5.22033 13.9412C5.24101 13.9531 5.25589 13.9708 5.26471 13.9945C5.27362 14.0152 5.27657 14.0419 5.27068 14.0686C5.26471 14.1011 5.24992 14.1277 5.22621 14.1455C5.20553 14.1632 5.17292 14.1721 5.13147 14.1721C5.14929 14.1869 5.16409 14.2017 5.17292 14.2165C5.18477 14.2343 5.19662 14.261 5.21142 14.2995L5.24992 14.3972L5.14332 14.3764L5.096 14.2669C5.09003 14.258 5.08708 14.2462 5.0812 14.2373ZM5.34172 13.956L5.43049 13.9649L5.40981 14.2106C5.40687 14.2491 5.40687 14.2758 5.40687 14.2846C5.40981 14.3054 5.41864 14.3202 5.43049 14.332C5.44528 14.3468 5.4631 14.3527 5.48975 14.3557C5.5164 14.3587 5.53708 14.3527 5.54894 14.3439C5.56373 14.335 5.57264 14.3231 5.57853 14.3083C5.58147 14.2935 5.58449 14.2669 5.58744 14.2314L5.60812 13.9797L5.69992 13.9886L5.67923 14.2254C5.67621 14.2817 5.67032 14.3202 5.66141 14.3409C5.65553 14.3616 5.64368 14.3823 5.63182 14.3941C5.61703 14.409 5.59635 14.4208 5.57264 14.4268C5.55188 14.4357 5.52229 14.4357 5.48673 14.4326C5.44234 14.4297 5.40981 14.4208 5.38905 14.409C5.36836 14.3972 5.35054 14.3823 5.33877 14.3675C5.32692 14.3498 5.32095 14.332 5.31801 14.3143C5.31507 14.2876 5.31507 14.2491 5.31801 14.1988L5.34172 13.956ZM4.62229 14.0892L4.64003 14.0152L4.83254 14.0655L4.78512 14.2402C4.76142 14.255 4.73183 14.2639 4.69038 14.2669C4.65188 14.2698 4.61641 14.2669 4.58085 14.258C4.53352 14.2462 4.49502 14.2254 4.46837 14.1988C4.43878 14.1692 4.42096 14.1336 4.41213 14.0951C4.40616 14.0537 4.40616 14.0122 4.41801 13.9708C4.42987 13.9264 4.45055 13.8879 4.48022 13.8554C4.50687 13.8257 4.54235 13.808 4.58379 13.7991C4.61641 13.7902 4.65483 13.7932 4.69635 13.805C4.74957 13.8198 4.79101 13.8406 4.81472 13.8731C4.83842 13.9027 4.85027 13.9412 4.84733 13.9827L4.75553 13.9768C4.75553 13.9531 4.74957 13.9323 4.73477 13.9146C4.71997 13.8998 4.70224 13.885 4.67559 13.8791C4.63709 13.8702 4.60455 13.8731 4.57496 13.8909C4.54529 13.9087 4.52461 13.9442 4.50981 13.9916C4.49502 14.0449 4.49796 14.0863 4.51275 14.1188C4.53049 14.1514 4.55714 14.1721 4.5927 14.181C4.61338 14.1869 4.6312 14.1869 4.65188 14.1869C4.67265 14.184 4.69038 14.1781 4.70812 14.1721L4.72292 14.1159L4.62229 14.0892ZM5.0812 13.9056L4.92719 13.8791L4.85027 14.3261L4.93905 14.3409L4.97166 14.1544L4.99234 14.1573C5.01311 14.1603 5.0279 14.1662 5.03673 14.1692C5.04564 14.1751 5.05153 14.184 5.06044 14.1929C5.06338 14.2017 5.07229 14.2165 5.0812 14.2373V14.0982C5.07229 14.0982 5.06338 14.0951 5.05153 14.0951L4.98646 14.0833L5.0042 13.9708L5.07523 13.9827C5.07817 13.9827 5.0812 13.9827 5.0812 13.9827V13.9056Z" fill="#003399"/>
<path fill-rule="evenodd" clip-rule="evenodd" d="M19.1911 13.3517V12.5168H19.5582V11.0483L19.1911 11.7826V9.94994H20.6329L21 14.1718H19.5582V13.3517H19.1911ZM19.1911 9.94994V11.7826L18.824 12.5168H19.1911V13.3517H18.4984L18.2142 14.1274H17.3201V13.1622L18.3178 11.0098H18.1135L18.6819 9.94994H19.1911ZM17.3201 11.3563L17.7671 10.2963L17.3201 10.0476V11.3563ZM13.7645 10.9506C13.7853 10.8293 13.7853 10.7108 13.7645 10.5983V10.9506ZM17.3201 10.0476V11.3563L17.2609 11.4983C16.3787 10.8678 15.0761 11.4421 15.002 12.1082C14.928 12.8039 15.458 13.3665 16.8109 12.9461L16.3461 14.1895C14.5609 14.3879 13.8681 13.6803 13.7645 12.8543V12.3866C13.7911 12.1704 13.8475 11.9602 13.9244 11.7648C14.8037 9.57989 16.2306 10.0713 16.7724 10.0299L16.8524 9.78711L17.3201 10.0476ZM17.3201 13.1622L16.873 14.1274H17.3201V13.1622ZM12.16 14.1007C13.1162 13.9112 14.0547 12.7625 13.1132 11.8477C13.4804 11.6523 13.7083 11.3 13.7645 10.9506V10.5983C13.6994 10.2342 13.4181 9.93809 12.8882 9.92918L12.16 9.91438V10.7256H12.4619C12.7846 10.7256 12.7432 11.5605 12.3405 11.5605H12.16V12.2C12.5952 12.2829 12.4411 12.8868 12.16 13.0734V14.1007ZM13.7645 12.3866V12.8543C13.7468 12.7004 13.7468 12.5434 13.7645 12.3866ZM10.8987 9.88774L10.3096 11.0306L10.5731 11.0098L9.86255 14.1274H11.8964C11.9853 14.1274 12.0711 14.1185 12.16 14.1007V13.0734C12.1096 13.1089 12.0534 13.1296 11.9971 13.1296H11.2658L11.5086 12.1911H12.0563C12.0948 12.1911 12.1304 12.194 12.16 12.2V11.5605H11.6507L11.855 10.7256H12.16V9.91438L10.8987 9.88774Z" fill="#003399"/>
</g>
<defs>
<clipPath id="clip0">
<rect width="24" height="24" rx="12" fill="white"/>
</clipPath>
</defs>
</svg>
