<svg width="20" height="20" viewBox="0 0 20 20" fill="none" xmlns="http://www.w3.org/2000/svg">
<path fill-rule="evenodd" clip-rule="evenodd" d="M6.26686 3.45486C6.91012 3.4035 7.52077 3.15049 8.01186 2.73186C8.56652 2.25945 9.27129 2 9.99986 2C10.7284 2 11.4332 2.25945 11.9879 2.73186C12.4789 3.15049 13.0896 3.4035 13.7329 3.45486C14.4593 3.51292 15.1413 3.82782 15.6566 4.34313C16.1719 4.85843 16.4868 5.54043 16.5449 6.26686C16.5959 6.90986 16.8489 7.52086 17.2679 8.01186C17.7403 8.56652 17.9997 9.27129 17.9997 9.99986C17.9997 10.7284 17.7403 11.4332 17.2679 11.9879C16.8492 12.4789 16.5962 13.0896 16.5449 13.7329C16.4868 14.4593 16.1719 15.1413 15.6566 15.6566C15.1413 16.1719 14.4593 16.4868 13.7329 16.5449C13.0896 16.5962 12.4789 16.8492 11.9879 17.2679C11.4332 17.7403 10.7284 17.9997 9.99986 17.9997C9.27129 17.9997 8.56652 17.7403 8.01186 17.2679C7.52077 16.8492 6.91012 16.5962 6.26686 16.5449C5.54043 16.4868 4.85843 16.1719 4.34313 15.6566C3.82782 15.1413 3.51292 14.4593 3.45486 13.7329C3.4035 13.0896 3.15049 12.4789 2.73186 11.9879C2.25945 11.4332 2 10.7284 2 9.99986C2 9.27129 2.25945 8.56652 2.73186 8.01186C3.15049 7.52077 3.4035 6.91012 3.45486 6.26686C3.51292 5.54043 3.82782 4.85843 4.34313 4.34313C4.85843 3.82782 5.54043 3.51292 6.26686 3.45486ZM13.7069 8.70686C13.889 8.51826 13.9898 8.26566 13.9875 8.00346C13.9853 7.74126 13.8801 7.49045 13.6947 7.30504C13.5093 7.11963 13.2585 7.01446 12.9963 7.01219C12.7341 7.00991 12.4815 7.1107 12.2929 7.29286L8.99986 10.5859L7.70686 9.29286C7.51826 9.1107 7.26565 9.00991 7.00346 9.01219C6.74126 9.01446 6.49045 9.11963 6.30504 9.30504C6.11963 9.49045 6.01446 9.74126 6.01219 10.0035C6.00991 10.2657 6.1107 10.5183 6.29286 10.7069L8.29286 12.7069C8.48039 12.8943 8.7347 12.9996 8.99986 12.9996C9.26502 12.9996 9.51933 12.8943 9.70686 12.7069L13.7069 8.70686Z" fill="#6FCF97"/>
</svg>
