<svg width="36" height="37" viewBox="0 0 36 37" fill="none" xmlns="http://www.w3.org/2000/svg">
<path fill-rule="evenodd" clip-rule="evenodd" d="M18.0001 32.5285C21.8192 32.5285 25.4819 31.0114 28.1824 28.3109C30.883 25.6103 32.4001 21.9476 32.4001 18.1285C32.4001 14.3094 30.883 10.6467 28.1824 7.94618C25.4819 5.24565 21.8192 3.72852 18.0001 3.72852C14.181 3.72852 10.5183 5.24565 7.81776 7.94618C5.11724 10.6467 3.6001 14.3094 3.6001 18.1285C3.6001 21.9476 5.11724 25.6103 7.81776 28.3109C10.5183 31.0114 14.181 32.5285 18.0001 32.5285ZM24.6727 15.8011C25.0006 15.4616 25.182 15.0069 25.1779 14.535C25.1738 14.063 24.9845 13.6116 24.6508 13.2778C24.317 12.9441 23.8656 12.7548 23.3936 12.7507C22.9217 12.7466 22.467 12.928 22.1275 13.2559L16.2001 19.1833L13.8727 16.8559C13.5332 16.528 13.0785 16.3466 12.6066 16.3507C12.1346 16.3548 11.6832 16.5441 11.3494 16.8778C11.0157 17.2116 10.8264 17.663 10.8223 18.135C10.8182 18.6069 10.9996 19.0616 11.3275 19.4011L14.9275 23.0011C15.265 23.3386 15.7228 23.5281 16.2001 23.5281C16.6774 23.5281 17.1351 23.3386 17.4727 23.0011L24.6727 15.8011Z" fill="#9BC7FD"/>
</svg>
