<svg width="16" height="16" viewBox="0 0 16 16" xmlns="http://www.w3.org/2000/svg">
<path opacity="0.4" d="M15.4999 8C15.4999 12.143 12.1421 15.5 7.99988 15.5C3.85763 15.5 0.499878 12.143 0.499878 8C0.499878 3.8585 3.85763 0.5 7.99988 0.5C12.1421 0.5 15.4999 3.8585 15.4999 8Z" fill="#9BC7FD"/>
<path d="M10.6802 10.8608C10.5819 10.8608 10.4829 10.8353 10.3922 10.7821L7.4477 9.02559C7.2782 8.92359 7.17395 8.73984 7.17395 8.54184V4.75659C7.17395 4.44609 7.42595 4.19409 7.73645 4.19409C8.04695 4.19409 8.29895 4.44609 8.29895 4.75659V8.22234L10.9689 9.81459C11.2352 9.97434 11.3229 10.3193 11.1639 10.5863C11.0582 10.7626 10.8714 10.8608 10.6802 10.8608Z" fill="#9BC7FD"/>
</svg>
