<svg width="24" height="24" viewBox="0 0 24 24" fill="none" xmlns="http://www.w3.org/2000/svg">
<rect width="24" height="24" rx="12" fill="white"/>
<path d="M7.2001 7.2002C6.77575 7.2002 6.36878 7.36877 6.06873 7.66882C5.76867 7.96888 5.6001 8.37585 5.6001 8.80019V9.60019H18.4001V8.80019C18.4001 8.37585 18.2315 7.96888 17.9315 7.66882C17.6314 7.36877 17.2244 7.2002 16.8001 7.2002H7.2001Z" fill="black"/>
<path fill-rule="evenodd" clip-rule="evenodd" d="M18.4001 11.2002H5.6001V15.2002C5.6001 15.6245 5.76867 16.0315 6.06873 16.3316C6.36878 16.6316 6.77575 16.8002 7.2001 16.8002H16.8001C17.2244 16.8002 17.6314 16.6316 17.9315 16.3316C18.2315 16.0315 18.4001 15.6245 18.4001 15.2002V11.2002ZM7.2001 14.4002C7.2001 14.188 7.28438 13.9845 7.43441 13.8345C7.58444 13.6845 7.78792 13.6002 8.0001 13.6002H8.8001C9.01227 13.6002 9.21575 13.6845 9.36578 13.8345C9.51581 13.9845 9.6001 14.188 9.6001 14.4002C9.6001 14.6124 9.51581 14.8159 9.36578 14.9659C9.21575 15.1159 9.01227 15.2002 8.8001 15.2002H8.0001C7.78792 15.2002 7.58444 15.1159 7.43441 14.9659C7.28438 14.8159 7.2001 14.6124 7.2001 14.4002ZM11.2001 13.6002C10.9879 13.6002 10.7844 13.6845 10.6344 13.8345C10.4844 13.9845 10.4001 14.188 10.4001 14.4002C10.4001 14.6124 10.4844 14.8159 10.6344 14.9659C10.7844 15.1159 10.9879 15.2002 11.2001 15.2002H12.0001C12.2123 15.2002 12.4158 15.1159 12.5658 14.9659C12.7158 14.8159 12.8001 14.6124 12.8001 14.4002C12.8001 14.188 12.7158 13.9845 12.5658 13.8345C12.4158 13.6845 12.2123 13.6002 12.0001 13.6002H11.2001Z" fill="black"/>
</svg>
