<svg width="25" height="24" viewBox="0 0 25 24" xmlns="http://www.w3.org/2000/svg">
<path d="M16.0708 7.77661H8.6875" stroke="white" stroke-width="1.5" stroke-linecap="round" stroke-linejoin="round"/>
<path d="M16.0708 11.9631H8.6875" stroke="white" stroke-width="1.5" stroke-linecap="round" stroke-linejoin="round"/>
<path d="M11.5048 16.1399H8.6875" stroke="white" stroke-width="1.5" stroke-linecap="round" stroke-linejoin="round"/>
<path fill-rule="evenodd" clip-rule="evenodd" d="M16.2679 21.2502C16.2679 21.2502 8.41728 21.2462 8.40501 21.2462C5.5826 21.2292 3.83496 19.4132 3.83496 16.6432V7.44718C3.83496 4.66318 5.5959 2.84018 8.44285 2.84018C8.44285 2.84018 16.2924 2.84318 16.3057 2.84318C19.1281 2.86018 20.8768 4.67718 20.8768 7.44718V16.6432C20.8768 19.4272 19.1148 21.2502 16.2679 21.2502Z" stroke="white" stroke-width="1.5" stroke-linecap="round" stroke-linejoin="round"/>
<path fill-rule="evenodd" clip-rule="evenodd" d="M22.4334 17.9688C22.4334 20.1608 20.6165 21.9375 18.3749 21.9375C16.1333 21.9375 14.3164 20.1608 14.3164 17.9688C14.3164 15.7767 16.1333 14 18.3749 14C20.6165 14 22.4334 15.7767 22.4334 17.9688Z" fill="#061127" stroke="white" stroke-width="1.5" stroke-linecap="round" stroke-linejoin="round"/>
<path d="M19.8807 19.2312L18.2266 18.2662V16.1866" stroke="white" stroke-linecap="round" stroke-linejoin="round"/>
</svg>
