<svg width="20" height="20" viewBox="0 0 20 20" fill="none" xmlns="http://www.w3.org/2000/svg">
<path fill-rule="evenodd" clip-rule="evenodd" d="M10.0003 1.66653C7.75033 1.66653 5.66699 2.5832 4.08366 4.16653C2.50033 5.74987 1.66699 7.91653 1.66699 10.1665C1.66699 14.6665 5.33366 18.3332 9.83366 18.3332H10.0003C14.6662 18.2499 18.3337 14.4999 18.3337 9.8332C18.3337 5.3332 14.6662 1.66653 10.167 1.66653H10.0003Z" fill="#EB5757"/>
<path fill-rule="evenodd" clip-rule="evenodd" d="M9.33388 6.31666C9.33388 5.89999 9.66721 5.64999 10.0005 5.64999C10.4172 5.64999 10.6672 5.98333 10.6672 6.31666V10.4833C10.6672 10.9 10.3339 11.15 10.0005 11.15C9.58388 11.15 9.33388 10.9 9.33388 10.4833V6.31666ZM10.0003 14.3584C10.5986 14.3584 11.0837 13.8734 11.0837 13.2751C11.0837 12.6768 10.5986 12.1917 10.0003 12.1917C9.40202 12.1917 8.91699 12.6768 8.91699 13.2751C8.91699 13.8734 9.40202 14.3584 10.0003 14.3584Z" fill="white"/>
</svg>
