<svg width="20" height="21" viewBox="0 0 20 21" xmlns="http://www.w3.org/2000/svg">
<path d="M5.35033 15.1748C3.49199 13.9581 2.29199 12.1248 2.29199 10.5164C2.29199 7.78311 5.74199 4.43311 10.0003 4.43311C11.742 4.43311 13.3587 4.99144 14.6587 5.85811" stroke="white" stroke-width="1.5" stroke-linecap="round" stroke-linejoin="round"/>
<path d="M16.5419 7.5752C17.2844 8.51686 17.7169 9.55853 17.7169 10.5169C17.7169 13.2502 14.2586 16.6002 10.0003 16.6002C9.24193 16.6002 8.50109 16.4919 7.80859 16.3002" stroke="white" stroke-width="1.5" stroke-linecap="round" stroke-linejoin="round"/>
<path d="M8.13804 12.3723C7.6422 11.8815 7.3647 11.2123 7.3672 10.5148C7.36387 9.06064 8.54054 7.87897 9.99554 7.87647C10.6955 7.87481 11.3672 8.15231 11.8622 8.64731" stroke="white" stroke-width="1.5" stroke-linecap="round" stroke-linejoin="round"/>
<path d="M12.5917 10.9824C12.3967 12.0591 11.5542 12.9033 10.4775 13.1008" stroke="white" stroke-width="1.5" stroke-linecap="round" stroke-linejoin="round"/>
<path d="M16.5766 3.94141L3.43164 17.0864" stroke="white" stroke-width="1.5" stroke-linecap="round" stroke-linejoin="round"/>
</svg>
