<svg width="36" height="36" viewBox="0 0 36 36" xmlns="http://www.w3.org/2000/svg">
<circle cx="18" cy="18" r="18" fill="white"/>
<path d="M26.0998 12.4372C26.0998 11.0895 24.9107 9.90039 23.563 9.90039H13.3366C11.9889 9.90039 10.7998 11.0895 10.7998 12.4372V22.6636C10.7998 24.0113 11.9889 25.2004 13.3366 25.2004H18.4894V19.4133H16.5869V16.8766H18.4894V15.846C18.4894 14.1019 19.7578 12.5957 21.3433 12.5957H23.4045V15.1325H21.3433C21.1055 15.1325 20.8677 15.3703 20.8677 15.846V16.8766H23.4045V19.4133H20.8677V25.2004H23.563C24.9107 25.2004 26.0998 24.0113 26.0998 22.6636V12.4372Z" fill="#011E41"/>
</svg>
