<svg width="20" height="20" viewBox="0 0 20 20" xmlns="http://www.w3.org/2000/svg">
<path d="M10 6.66667V17.5M10 6.66667V5C10 4.67037 10.0977 4.34813 10.2809 4.07405C10.464 3.79997 10.7243 3.58635 11.0289 3.4602C11.3334 3.33406 11.6685 3.30105 11.9918 3.36536C12.3151 3.42967 12.6121 3.5884 12.8452 3.82149C13.0783 4.05458 13.237 4.35155 13.3013 4.67485C13.3656 4.99815 13.3326 5.33326 13.2065 5.63781C13.0803 5.94235 12.8667 6.20265 12.5926 6.38578C12.3185 6.56892 11.9963 6.66667 11.6667 6.66667H10ZM10 6.66667V4.58333C10 4.17129 9.87781 3.7685 9.6489 3.4259C9.41998 3.08329 9.0946 2.81627 8.71392 2.65859C8.33324 2.5009 7.91436 2.45965 7.51023 2.54003C7.1061 2.62042 6.73489 2.81884 6.44353 3.1102C6.15217 3.40155 5.95375 3.77277 5.87336 4.1769C5.79298 4.58102 5.83423 4.99991 5.99192 5.38059C6.1496 5.76127 6.41663 6.08664 6.75923 6.31556C7.10183 6.54448 7.50462 6.66667 7.91667 6.66667H10ZM4.16667 10H15.8333M4.16667 10C3.72464 10 3.30072 9.82441 2.98816 9.51184C2.67559 9.19928 2.5 8.77536 2.5 8.33333C2.5 7.89131 2.67559 7.46738 2.98816 7.15482C3.30072 6.84226 3.72464 6.66667 4.16667 6.66667H15.8333C16.2754 6.66667 16.6993 6.84226 17.0118 7.15482C17.3244 7.46738 17.5 7.89131 17.5 8.33333C17.5 8.77536 17.3244 9.19928 17.0118 9.51184C16.6993 9.82441 16.2754 10 15.8333 10M4.16667 10V15.8333C4.16667 16.2754 4.34226 16.6993 4.65482 17.0118C4.96738 17.3244 5.39131 17.5 5.83333 17.5H14.1667C14.6087 17.5 15.0326 17.3244 15.3452 17.0118C15.6577 16.6993 15.8333 16.2754 15.8333 15.8333V10" stroke="white" stroke-width="1.7" stroke-linecap="round" stroke-linejoin="round"/>
</svg>
