<svg width="120" height="35" viewBox="0 0 120 35" fill="none" xmlns="http://www.w3.org/2000/svg">
<path d="M115.556 34.7148H4.44444C2.00111 34.7148 0 32.7611 0 30.3755V4.33976C0 1.95423 2.00111 0.000464037 4.44444 0.000464037H115.556C117.999 0.000464037 120 1.95423 120 4.33976V30.3755C120 32.7611 117.999 34.7148 115.556 34.7148Z" fill="#022E64"/>
<path d="M115.556 0.695835C117.613 0.695835 119.288 2.33067 119.288 4.33976V30.3755C119.288 32.3846 117.613 34.0195 115.556 34.0195H4.44444C2.38667 34.0195 0.712222 32.3846 0.712222 30.3755V4.33976C0.712222 2.33067 2.38667 0.695835 4.44444 0.695835H115.556ZM115.556 0.000464037H4.44444C2.00111 0.000464037 0 1.95423 0 4.33976V30.3755C0 32.7611 2.00111 34.7148 4.44444 34.7148H115.556C117.999 34.7148 120 32.7611 120 30.3755V4.33976C120 1.95423 117.999 0.000464037 115.556 0.000464037Z" fill="#A6A6A6"/>
<path d="M42.1489 8.89126C42.1489 9.61593 41.9267 10.1963 41.4889 10.6292C40.9856 11.1423 40.33 11.4005 39.5267 11.4005C38.7589 11.4005 38.1034 11.1379 37.5656 10.6205C37.0267 10.0954 36.7578 9.45103 36.7578 8.67972C36.7578 7.90841 37.0267 7.26403 37.5656 6.74331C38.1034 6.22151 38.7589 5.95898 39.5267 5.95898C39.9089 5.95898 40.2734 6.03601 40.6211 6.1792C40.9678 6.32349 41.25 6.51875 41.4545 6.75958L40.99 7.21738C40.6334 6.80623 40.1478 6.60337 39.5267 6.60337C38.9667 6.60337 38.4811 6.7943 38.0689 7.17941C37.6611 7.56561 37.4567 8.06571 37.4567 8.67972C37.4567 9.29373 37.6611 9.79818 38.0689 10.1844C38.4811 10.5651 38.9667 10.7604 39.5267 10.7604C40.1211 10.7604 40.6211 10.5651 41.0156 10.18C41.2756 9.9251 41.4234 9.57362 41.4623 9.1245H39.5267V8.49747H42.1089C42.14 8.63308 42.1489 8.76434 42.1489 8.89126Z" fill="white" stroke="white" stroke-width="0.16" stroke-miterlimit="10"/>
<path d="M46.246 6.71709H43.8205V8.36602H46.0071V8.99305H43.8205V10.642H46.246V11.2809H43.1338V6.07812H46.246V6.71709Z" fill="white" stroke="white" stroke-width="0.16" stroke-miterlimit="10"/>
<path d="M49.1364 11.2809H48.4497V6.71709H46.9619V6.07812H50.6252V6.71709H49.1364V11.2809Z" fill="white" stroke="white" stroke-width="0.16" stroke-miterlimit="10"/>
<path d="M53.2764 11.2809V6.07812H53.9619V11.2809H53.2764Z" fill="white" stroke="white" stroke-width="0.16" stroke-miterlimit="10"/>
<path d="M57.0006 11.2809H56.3195V6.71709H54.8262V6.07812H58.4939V6.71709H57.0006V11.2809Z" fill="white" stroke="white" stroke-width="0.16" stroke-miterlimit="10"/>
<path d="M65.4301 10.6118C64.9045 11.1379 64.2534 11.4005 63.4767 11.4005C62.6956 11.4005 62.0445 11.1379 61.519 10.6118C60.9945 10.0867 60.7334 9.44236 60.7334 8.67972C60.7334 7.91709 60.9945 7.27271 61.519 6.74765C62.0445 6.22151 62.6956 5.95898 63.4767 5.95898C64.249 5.95898 64.9001 6.22151 65.4256 6.75199C65.9545 7.28138 66.2156 7.92143 66.2156 8.67972C66.2156 9.44236 65.9545 10.0867 65.4301 10.6118ZM62.0267 10.1757C62.4223 10.5651 62.9034 10.7604 63.4767 10.7604C64.0456 10.7604 64.5312 10.5651 64.9223 10.1757C65.3167 9.78624 65.5167 9.28614 65.5167 8.67972C65.5167 8.07331 65.3167 7.5732 64.9223 7.18375C64.5312 6.7943 64.0456 6.59903 63.4767 6.59903C62.9034 6.59903 62.4223 6.7943 62.0267 7.18375C61.6323 7.5732 61.4323 8.07331 61.4323 8.67972C61.4323 9.28614 61.6323 9.78624 62.0267 10.1757Z" fill="white" stroke="white" stroke-width="0.16" stroke-miterlimit="10"/>
<path d="M67.1787 11.2809V6.07812H68.012L70.6032 10.1245H70.6332L70.6032 9.12431V6.07812H71.2887V11.2809H70.5732L67.8598 7.03494H67.8298L67.8598 8.03949V11.2809H67.1787Z" fill="white" stroke="white" stroke-width="0.16" stroke-miterlimit="10"/>
<path d="M60.5649 18.8779C58.4771 18.8779 56.7716 20.4292 56.7716 22.5695C56.7716 24.6925 58.4771 26.2601 60.5649 26.2601C62.6571 26.2601 64.3627 24.6925 64.3627 22.5695C64.3627 20.4292 62.6571 18.8779 60.5649 18.8779ZM60.5649 24.8064C59.4193 24.8064 58.4338 23.8832 58.4338 22.5695C58.4338 21.2384 59.4193 20.3315 60.5649 20.3315C61.7105 20.3315 62.7005 21.2384 62.7005 22.5695C62.7005 23.8832 61.7105 24.8064 60.5649 24.8064ZM52.2882 18.8779C50.196 18.8779 48.4949 20.4292 48.4949 22.5695C48.4949 24.6925 50.196 26.2601 52.2882 26.2601C54.3793 26.2601 56.0816 24.6925 56.0816 22.5695C56.0816 20.4292 54.3793 18.8779 52.2882 18.8779ZM52.2882 24.8064C51.1416 24.8064 50.1527 23.8832 50.1527 22.5695C50.1527 21.2384 51.1416 20.3315 52.2882 20.3315C53.4338 20.3315 54.4194 21.2384 54.4194 22.5695C54.4194 23.8832 53.4338 24.8064 52.2882 24.8064ZM42.4394 20.0093V21.578H46.276C46.1638 22.4545 45.8638 23.0989 45.4038 23.548C44.8438 24.0904 43.9716 24.6925 42.4394 24.6925C40.0782 24.6925 38.2294 22.832 38.2294 20.5268C38.2294 18.2215 40.0782 16.3611 42.4394 16.3611C43.716 16.3611 44.6449 16.8481 45.3305 17.4795L46.4627 16.3741C45.5038 15.4802 44.2282 14.7935 42.4394 14.7935C39.2016 14.7935 36.4805 17.3656 36.4805 20.5268C36.4805 23.688 39.2016 26.2601 42.4394 26.2601C44.1894 26.2601 45.5038 25.7003 46.5371 24.6502C47.596 23.6164 47.926 22.1627 47.926 20.9889C47.926 20.6244 47.8949 20.2892 47.8394 20.0093H42.4394ZM82.7127 21.2254C82.4005 20.3999 81.4371 18.8779 79.4749 18.8779C77.5305 18.8779 75.9116 20.3738 75.9116 22.5695C75.9116 24.6372 77.5138 26.2601 79.6616 26.2601C81.3982 26.2601 82.4005 25.2262 82.8127 24.6242L81.5238 23.7856C81.0938 24.3996 80.5082 24.8064 79.6616 24.8064C78.8205 24.8064 78.2171 24.43 77.8305 23.688L82.8871 21.6452L82.7127 21.2254ZM77.5571 22.4545C77.5138 21.0312 78.6893 20.3022 79.5316 20.3022C80.1916 20.3022 80.7516 20.6244 80.9382 21.0855L77.5571 22.4545ZM73.4471 26.0355H75.1093V15.1873H73.4471V26.0355ZM70.7249 19.7001H70.6693C70.296 19.2684 69.5838 18.8779 68.6816 18.8779C66.7882 18.8779 65.0571 20.5007 65.0571 22.5814C65.0571 24.6502 66.7882 26.2601 68.6816 26.2601C69.5838 26.2601 70.296 25.8663 70.6693 25.4215H70.7249V25.9509C70.7249 27.3623 69.9527 28.1206 68.7071 28.1206C67.6916 28.1206 67.0616 27.4046 66.8016 26.8025L65.356 27.3916C65.7727 28.3701 66.876 29.5742 68.7071 29.5742C70.656 29.5742 72.3005 28.4547 72.3005 25.7307V19.1024H70.7249V19.7001ZM68.8238 24.8064C67.6782 24.8064 66.7193 23.8702 66.7193 22.5814C66.7193 21.2807 67.6782 20.3315 68.8238 20.3315C69.9527 20.3315 70.8427 21.2807 70.8427 22.5814C70.8427 23.8702 69.9527 24.8064 68.8238 24.8064ZM90.4949 15.1873H86.5193V26.0355H88.1771V21.9251H90.4949C92.336 21.9251 94.1416 20.6244 94.1416 18.5557C94.1416 16.488 92.3316 15.1873 90.4949 15.1873ZM90.5382 20.4161H88.1771V16.6963H90.5382C91.776 16.6963 92.4827 17.6997 92.4827 18.5557C92.4827 19.3953 91.776 20.4161 90.5382 20.4161ZM100.786 18.8572C99.5882 18.8572 98.3427 19.3736 97.8304 20.5181L99.3016 21.1202C99.6182 20.5181 100.2 20.3228 100.816 20.3228C101.676 20.3228 102.548 20.8273 102.562 21.7179V21.8318C102.262 21.6626 101.619 21.412 100.829 21.412C99.2449 21.412 97.6304 22.2636 97.6304 23.8529C97.6304 25.3065 98.9282 26.2427 100.387 26.2427C101.503 26.2427 102.118 25.7513 102.505 25.1796H102.562V26.0182H104.163V21.8568C104.163 19.9334 102.692 18.8572 100.786 18.8572ZM100.586 24.8021C100.044 24.8021 99.2882 24.5396 99.2882 23.8832C99.2882 23.0436 100.23 22.7214 101.046 22.7214C101.776 22.7214 102.118 22.8787 102.562 23.0859C102.432 24.0904 101.546 24.8021 100.586 24.8021ZM109.996 19.0948L108.09 23.7975H108.034L106.064 19.0948H104.276L107.236 25.6667L105.547 29.3236H107.279L111.84 19.0948H109.996ZM95.0527 26.0355H96.7149V15.1873H95.0527V26.0355Z" fill="white"/>
<path d="M9.2755 6.54222C9.01439 6.80909 8.86328 7.22458 8.86328 7.76265V26.9554C8.86328 27.4934 9.01439 27.9089 9.2755 28.1758L9.33995 28.2344L20.3555 17.4838V17.2299L9.33995 6.4793L9.2755 6.54222Z" fill="url(#paint0_linear)"/>
<path d="M24.0232 21.0703L20.3555 17.485V17.2311L24.0277 13.6458L24.1099 13.6924L28.4588 16.1083C29.6999 16.7939 29.6999 17.9222 28.4588 18.6121L24.1099 21.0237L24.0232 21.0703Z" fill="url(#paint1_linear)"/>
<path d="M24.1098 21.0222L20.3554 17.3566L9.27539 28.1756C9.68761 28.5987 10.3598 28.6496 11.1243 28.2266L24.1098 21.0222Z" fill="url(#paint2_linear)"/>
<path d="M24.1098 13.6918L11.1243 6.48748C10.3598 6.06874 9.68761 6.11973 9.27539 6.54281L20.3554 17.3574L24.1098 13.6918Z" fill="url(#paint3_linear)"/>
<defs>
<linearGradient id="paint0_linear" x1="19.3775" y1="27.1552" x2="4.81686" y2="12.2418" gradientUnits="userSpaceOnUse">
<stop stop-color="#00A0FF"/>
<stop offset="0.0066" stop-color="#00A1FF"/>
<stop offset="0.2601" stop-color="#00BEFF"/>
<stop offset="0.5122" stop-color="#00D2FF"/>
<stop offset="0.7604" stop-color="#00DFFF"/>
<stop offset="1" stop-color="#00E3FF"/>
</linearGradient>
<linearGradient id="paint1_linear" x1="30.0749" y1="17.3568" x2="8.56658" y2="17.3568" gradientUnits="userSpaceOnUse">
<stop stop-color="#FFE000"/>
<stop offset="0.4087" stop-color="#FFBD00"/>
<stop offset="0.7754" stop-color="#FFA500"/>
<stop offset="1" stop-color="#FF9C00"/>
</linearGradient>
<linearGradient id="paint2_linear" x1="22.0683" y1="15.3639" x2="2.32293" y2="-4.85987" gradientUnits="userSpaceOnUse">
<stop stop-color="#FF3A44"/>
<stop offset="1" stop-color="#C31162"/>
</linearGradient>
<linearGradient id="paint3_linear" x1="6.48632" y1="34.5617" x2="15.3035" y2="25.5309" gradientUnits="userSpaceOnUse">
<stop stop-color="#32A071"/>
<stop offset="0.0685" stop-color="#2DA771"/>
<stop offset="0.4762" stop-color="#15CF74"/>
<stop offset="0.8009" stop-color="#06E775"/>
<stop offset="1" stop-color="#00F076"/>
</linearGradient>
</defs>
</svg>
