<svg width="25" height="24" viewBox="0 0 25 24" fill="none" xmlns="http://www.w3.org/2000/svg">
<rect x="0.98999" width="24" height="24" rx="12" fill="#FFF000"/>
<path d="M21.3962 12.5905C21.3962 12.1412 21.2766 11.7027 21.0483 11.3158C21.2766 10.9303 21.3962 10.4891 21.3962 10.0412C21.3962 8.66743 20.2898 7.55025 18.9305 7.55025L16.3901 7.5516C15.9157 7.5516 15.7852 7.94526 15.7825 8.15431V8.82761C15.2143 8.05929 14.2954 7.53803 13.3032 7.53803C12.6453 7.53803 11.9983 7.73893 11.4695 8.10409C10.9408 7.73893 10.2938 7.53803 9.6359 7.53803C8.60151 7.53803 7.64867 8.10409 7.08729 8.9267L7.08593 8.76381V8.76245L7.08321 8.69865C7.0669 8.38101 6.93234 8.09458 6.72165 7.88418C6.94593 7.65884 7.08457 7.34934 7.08457 7.00591C7.08457 6.31768 6.52592 5.75977 5.83813 5.75977C5.14763 5.75977 4.59033 6.31768 4.59033 7.00591C4.59033 7.34934 4.72898 7.6602 4.95461 7.88554C4.73713 8.10409 4.60121 8.40273 4.59305 8.73259V12.6285H4.59169V16.6302C4.59169 17.48 5.28355 18.1723 6.13581 18.1723H19.8507C20.7016 18.1723 21.3949 17.48 21.3949 16.6302V12.5878L21.3962 12.5905Z" fill="white"/>
<path d="M5.20068 7.0091C5.20068 6.65616 5.48613 6.37109 5.83954 6.37109C6.19158 6.37109 6.47839 6.65752 6.47839 7.0091C6.47839 7.36203 6.19158 7.6471 5.83954 7.6471C5.48613 7.6471 5.20068 7.36203 5.20068 7.0091Z" fill="#EB2227"/>
<path d="M5.19946 7.00714C5.19946 6.65421 5.48491 6.36914 5.83832 6.36914C6.19172 6.36914 6.47717 6.65421 6.47717 7.00714C6.47717 7.36008 6.19036 7.64515 5.83832 7.64515C5.48491 7.64515 5.19946 7.36008 5.19946 7.00714Z" fill="#ED1C24"/>
<path d="M5.83932 8.15403C5.50359 8.15403 5.22222 8.42145 5.19775 8.77167V14.4757H6.47954V8.75267C6.45643 8.41738 6.17506 8.15403 5.83932 8.15403ZM13.303 8.14453C12.7199 8.14453 12.1544 8.33457 11.7086 8.68208L11.4694 8.86805L11.2302 8.68208C10.7843 8.33593 10.2189 8.14453 9.63574 8.14453C8.32541 8.14453 7.17548 9.27122 7.17548 10.5554V14.4743H8.4559V10.5703C8.4559 9.92958 8.97514 9.42868 9.6371 9.42868C10.3018 9.42868 10.8414 9.94044 10.8414 10.5703V13.8146C10.8414 14.2938 11.2451 14.42 11.4612 14.42C11.7942 14.42 12.0729 14.1513 12.0824 13.8146V10.5703C12.0824 9.94044 12.6234 9.42868 13.2867 9.42868C13.9432 9.42868 14.4788 9.94044 14.4788 10.5703V14.4743H15.7606V10.5554C15.7606 9.27122 14.6106 8.14453 13.3003 8.14453H13.303ZM18.895 11.9155C19.2579 11.9155 19.5515 12.2128 19.5515 12.5793C19.5515 12.9458 19.2566 13.2431 18.8937 13.2431H16.3763V14.4743L18.9236 14.4757C19.9457 14.473 20.7776 13.6273 20.7776 12.5902C20.7776 12.187 20.6471 11.7879 20.4106 11.4649L20.3005 11.3155L20.4092 11.1662C20.6471 10.8418 20.7776 10.4413 20.7776 10.0395C20.7776 8.99973 19.943 8.15403 18.9195 8.15403L16.3763 8.15675V9.3771H18.8937C19.2566 9.3771 19.5515 9.67438 19.5515 10.0395C19.5515 10.4047 19.2566 10.702 18.8937 10.702H17.5358C17.533 10.702 17.5303 10.702 17.5276 10.702C17.1919 10.702 16.92 10.9735 16.92 11.3074C16.92 11.6427 17.1919 11.9142 17.5276 11.9142H18.895V11.9155Z" fill="#231F20"/>
<path d="M20.1822 15.3015C20.0096 15.2092 19.8139 15.1562 19.6045 15.1562C19.3952 15.1562 19.1981 15.2078 19.0268 15.3015C18.7998 15.4237 18.6163 15.6137 18.5022 15.8458C18.3893 15.6137 18.2058 15.4237 17.9788 15.3015C17.8076 15.2092 17.6105 15.1562 17.4012 15.1562C17.1918 15.1562 16.9961 15.2078 16.8235 15.3015C16.5951 15.4237 16.4103 15.6164 16.2974 15.8499C16.1846 15.6164 15.9998 15.425 15.7714 15.3015C15.6001 15.2092 15.4017 15.1562 15.1924 15.1562C14.9844 15.1562 14.7859 15.2078 14.6147 15.3015C14.3904 15.4223 14.2069 15.611 14.0927 15.8418C13.9813 15.611 13.7978 15.4223 13.5721 15.3015C13.4009 15.2092 13.2038 15.1562 12.9931 15.1562C12.7851 15.1562 12.588 15.2078 12.4154 15.3015C12.1884 15.4237 12.0035 15.6137 11.8907 15.8458C11.7779 15.6137 11.5944 15.4237 11.3674 15.3015C11.1948 15.2092 10.999 15.1562 10.7897 15.1562C10.5804 15.1562 10.3833 15.2078 10.212 15.3015C9.98504 15.4237 9.80154 15.6137 9.68736 15.8458C9.5759 15.6137 9.39104 15.4237 9.16405 15.3015C8.99142 15.2092 8.79433 15.1562 8.58636 15.1562C8.37704 15.1562 8.17994 15.2078 8.00732 15.3015C7.78032 15.4237 7.59682 15.6137 7.484 15.8458C7.37118 15.6137 7.18768 15.4237 6.96069 15.3015C6.78806 15.2092 6.59097 15.1562 6.383 15.1562H6.38164C6.18047 15.1562 5.98202 15.2065 5.80532 15.3015C5.42065 15.5078 5.15967 15.9137 5.15967 16.3793C5.15967 17.0553 5.70881 17.601 6.38436 17.601C6.86962 17.601 7.28827 17.32 7.48672 16.9114C7.68517 17.32 8.10383 17.601 8.58908 17.601C9.07298 17.601 9.49163 17.32 9.69008 16.9114C9.88853 17.32 10.3085 17.601 10.7924 17.601C11.2777 17.601 11.6963 17.32 11.8948 16.9114C12.0933 17.32 12.5119 17.601 12.9972 17.601C13.4797 17.601 13.897 17.3214 14.0968 16.9155C14.2966 17.3214 14.7139 17.601 15.1964 17.601C15.6831 17.601 16.1031 17.3173 16.3002 16.9087C16.4973 17.3187 16.9173 17.601 17.4039 17.601C17.8891 17.601 18.3078 17.32 18.5062 16.9114C18.7047 17.32 19.1233 17.601 19.6086 17.601C20.2842 17.601 20.8319 17.054 20.8319 16.3793C20.8319 15.9137 20.5696 15.5078 20.1863 15.3015H20.1822Z" fill="#ED1C24"/>
<path d="M6.82075 15.9362C6.76502 15.8792 6.69842 15.8344 6.62366 15.8032C6.54754 15.7706 6.46599 15.7529 6.38035 15.7529C6.29336 15.7529 6.21181 15.7692 6.13705 15.8032C6.06093 15.8357 5.99432 15.8805 5.93995 15.9362C5.88422 15.9932 5.84073 16.0597 5.80675 16.1344C5.77412 16.209 5.75781 16.2919 5.75781 16.3787C5.75781 16.4656 5.77412 16.5471 5.80675 16.6217C5.83937 16.6977 5.88422 16.7629 5.93995 16.8185C5.99568 16.8742 6.06093 16.9176 6.13705 16.9516C6.21181 16.9842 6.29472 17.0004 6.38035 17.0004C6.46871 17.0004 6.55026 16.9842 6.62502 16.9516C6.69978 16.919 6.76638 16.8742 6.82211 16.8185C6.87784 16.7629 6.9227 16.6964 6.95396 16.6217C6.98658 16.5471 7.00425 16.4642 7.00425 16.3787C7.00425 16.2919 6.98794 16.2104 6.95396 16.1344C6.9227 16.0611 6.87784 15.9932 6.82075 15.9362ZM6.72425 16.5213C6.70522 16.5661 6.67803 16.6068 6.64405 16.6407C6.61143 16.6747 6.57065 16.7018 6.52579 16.7222C6.47958 16.7425 6.43065 16.752 6.38035 16.752C6.3287 16.752 6.27977 16.7425 6.23491 16.7222C6.1887 16.7018 6.14928 16.6747 6.11666 16.6407C6.08268 16.6081 6.05549 16.5674 6.03646 16.5213C6.01607 16.4765 6.00656 16.4276 6.00656 16.376C6.00656 16.3244 6.01607 16.2756 6.03646 16.2294C6.05685 16.1846 6.08268 16.1452 6.11666 16.1113C6.14928 16.0774 6.1887 16.0502 6.23491 16.0299C6.27977 16.0095 6.3287 16 6.38035 16C6.43065 16 6.47958 16.0095 6.52579 16.0299C6.57065 16.0489 6.61007 16.076 6.64405 16.1113C6.67803 16.1452 6.70522 16.186 6.72425 16.2294C6.76502 16.3204 6.76502 16.4303 6.72425 16.5213ZM9.02411 15.9362C8.96838 15.8792 8.90314 15.8344 8.82702 15.8032C8.7509 15.7706 8.66935 15.7529 8.58371 15.7529C8.49672 15.7529 8.41517 15.7692 8.34041 15.8032C8.26565 15.8344 8.19904 15.8792 8.14195 15.9362C8.08623 15.9932 8.04137 16.0611 8.00875 16.1344C7.97613 16.209 7.95845 16.2919 7.95845 16.3787C7.95845 16.4656 7.97613 16.5471 8.00875 16.6217C8.04001 16.695 8.08487 16.7615 8.14195 16.8185C8.19904 16.8742 8.26429 16.9176 8.34041 16.9516C8.41517 16.9842 8.49672 17.0004 8.58371 17.0004C8.67071 17.0004 8.75226 16.9842 8.82702 16.9516C8.90178 16.919 8.96838 16.8742 9.02411 16.8185C9.07984 16.7615 9.1247 16.695 9.15596 16.6217C9.18859 16.5471 9.20626 16.4642 9.20626 16.3787C9.20626 16.2919 9.18994 16.2104 9.15596 16.1344C9.1247 16.0611 9.07984 15.9932 9.02411 15.9362ZM8.92761 16.5213C8.90858 16.5674 8.88003 16.6081 8.84741 16.6407C8.81479 16.6747 8.77537 16.7018 8.7278 16.7222C8.68294 16.7425 8.63401 16.752 8.58371 16.752C8.53206 16.752 8.48313 16.7425 8.43827 16.7222C8.39342 16.7018 8.354 16.6747 8.32002 16.6407C8.28604 16.6081 8.26021 16.5674 8.23982 16.5213C8.21943 16.4765 8.20992 16.4262 8.20992 16.3774C8.20992 16.3774 8.20992 16.3774 8.20992 16.376C8.20992 16.3244 8.22079 16.2756 8.23982 16.2294C8.26021 16.1846 8.28604 16.1452 8.32002 16.1113C8.354 16.0774 8.39478 16.0502 8.43827 16.0299C8.48449 16.0095 8.53342 16 8.58236 16H8.58371C8.63401 16 8.68294 16.0095 8.7278 16.0299C8.77265 16.0489 8.81343 16.076 8.84741 16.1113C8.88003 16.1439 8.90858 16.1846 8.92761 16.2294C8.96703 16.3204 8.96703 16.4303 8.92761 16.5213ZM17.8376 15.9362C17.7832 15.8792 17.7166 15.8344 17.6405 15.8032C17.5657 15.7706 17.4828 15.7529 17.3958 15.7529C17.3088 15.7529 17.2273 15.7692 17.1525 15.8032C17.0777 15.8357 17.0111 15.8805 16.9554 15.9362C16.8997 15.9932 16.8548 16.0611 16.8235 16.1344C16.7909 16.2118 16.7733 16.2946 16.7733 16.3774C16.7733 16.3774 16.7733 16.3774 16.7733 16.3787C16.7733 16.4656 16.7909 16.5471 16.8235 16.6217C16.8562 16.6977 16.901 16.7629 16.9554 16.8185C17.0111 16.8742 17.0777 16.9176 17.1525 16.9516C17.2286 16.9842 17.3102 17.0004 17.3958 17.0004C17.4828 17.0004 17.5643 16.9842 17.6405 16.9516C17.7152 16.919 17.7818 16.8742 17.8376 16.8185C17.8933 16.7629 17.9381 16.6964 17.9708 16.6217C18.0034 16.5471 18.0197 16.4642 18.0197 16.3787C18.0197 16.2919 18.0034 16.2104 17.9708 16.1344C17.9381 16.0597 17.8933 15.9932 17.8376 15.9362ZM17.741 16.5213C17.722 16.5674 17.6948 16.6081 17.6609 16.6407C17.6269 16.6747 17.5875 16.7018 17.5426 16.7222C17.4977 16.7425 17.4474 16.752 17.3972 16.752C17.3469 16.752 17.2979 16.7425 17.2517 16.7222C17.2069 16.7018 17.1661 16.6747 17.1335 16.6407C17.1008 16.6081 17.0737 16.5674 17.0533 16.5213C17.0329 16.4765 17.022 16.4262 17.022 16.3774C17.022 16.3774 17.022 16.3774 17.022 16.376C17.022 16.3244 17.0329 16.2756 17.0533 16.2294C17.0723 16.186 17.0995 16.1452 17.1335 16.1113C17.1674 16.0774 17.2082 16.0502 17.2517 16.0299C17.2966 16.0095 17.3455 16 17.3958 16H17.3972C17.4474 16 17.4977 16.0095 17.5426 16.0299C17.5875 16.0489 17.6269 16.076 17.6609 16.1113C17.6935 16.1439 17.7207 16.1846 17.741 16.2294C17.7805 16.3204 17.7805 16.4303 17.741 16.5213ZM20.0409 15.9362C19.9852 15.8792 19.9199 15.8344 19.8438 15.8032C19.7691 15.7706 19.6862 15.7529 19.6005 15.7529C19.5135 15.7529 19.432 15.7692 19.3559 15.8032C19.2811 15.8357 19.2145 15.8805 19.1601 15.9362C19.1044 15.9932 19.0609 16.0597 19.0283 16.1344C18.9943 16.209 18.978 16.2919 18.978 16.3787C18.978 16.4656 18.9943 16.5471 19.0283 16.6217C19.0609 16.6977 19.1044 16.7629 19.1601 16.8185C19.2158 16.8742 19.2811 16.9176 19.3559 16.9516C19.4333 16.9842 19.5149 17.0004 19.5992 17.0004H19.6005C19.6862 17.0004 19.7691 16.9842 19.8438 16.9516C19.9186 16.919 19.9852 16.8742 20.0409 16.8185C20.0966 16.7629 20.1415 16.6964 20.1741 16.6217C20.2067 16.5471 20.2231 16.4642 20.2231 16.3787C20.2231 16.2919 20.2067 16.2104 20.1741 16.1344C20.1415 16.0597 20.0966 15.9932 20.0409 15.9362ZM19.9444 16.5213C19.9254 16.5674 19.8982 16.6081 19.8642 16.6407C19.8302 16.6747 19.7908 16.7018 19.7446 16.7222C19.6997 16.7425 19.6508 16.752 19.6005 16.752C19.5489 16.752 19.4999 16.7425 19.4551 16.7222C19.4102 16.7018 19.3694 16.6747 19.3355 16.6407C19.3028 16.6081 19.2757 16.5674 19.2553 16.5213C19.2362 16.4751 19.2254 16.4262 19.2254 16.376C19.2254 16.3244 19.2362 16.2756 19.2553 16.2294C19.2757 16.1846 19.3028 16.1452 19.3355 16.1113C19.3681 16.0774 19.4089 16.0502 19.4551 16.0299C19.5013 16.0095 19.5489 16 19.6005 16C19.6508 16 19.6997 16.0095 19.7446 16.0299C19.7895 16.0489 19.8302 16.076 19.8642 16.1113C19.8968 16.1439 19.9254 16.1846 19.9444 16.2294C19.9852 16.3204 19.9852 16.4303 19.9444 16.5213ZM11.0521 16.1072C11.0861 16.1398 11.1119 16.1805 11.1323 16.2253C11.1446 16.2511 11.1514 16.2783 11.1568 16.3054H11.4083C11.4015 16.243 11.3865 16.1819 11.362 16.1262C11.3294 16.0516 11.2846 15.9851 11.2288 15.9294C11.1731 15.8738 11.1079 15.8303 11.0317 15.7977C10.9556 15.7652 10.8741 15.7475 10.7871 15.7475C10.7001 15.7475 10.6185 15.7638 10.5438 15.795C10.4704 15.8262 10.4024 15.871 10.3453 15.9267C10.2882 15.9837 10.2434 16.0502 10.2121 16.1235C10.1808 16.1995 10.1645 16.2823 10.1645 16.3706V16.9611H10.4133V16.3529H10.4146C10.416 16.3081 10.4269 16.2661 10.4432 16.2253C10.4636 16.1805 10.4908 16.1398 10.5234 16.1072C10.556 16.0733 10.5968 16.0475 10.6416 16.0271C10.7327 15.9864 10.8414 15.9864 10.9325 16.0271C10.9774 16.0475 11.0181 16.0733 11.0508 16.1072H11.0521ZM13.5654 16.1452C13.5355 16.0692 13.4934 16 13.4404 15.9416C13.3873 15.8833 13.3221 15.8357 13.246 15.8018C13.1699 15.7665 13.0829 15.7489 12.9877 15.7489C12.9007 15.7489 12.8178 15.7652 12.7431 15.7991C12.6683 15.8317 12.6003 15.8751 12.546 15.9321C12.4902 15.9878 12.4454 16.0529 12.4128 16.129C12.3801 16.2036 12.3638 16.2851 12.3638 16.3719C12.3638 16.4588 12.3801 16.5416 12.4128 16.6149C12.4454 16.6909 12.4902 16.7575 12.546 16.8131C12.6017 16.8688 12.6683 16.9122 12.7431 16.9448C12.8178 16.9774 12.9007 16.9937 12.9877 16.9937C13.0516 16.9937 13.1155 16.9842 13.178 16.9679C13.2419 16.9502 13.3017 16.9217 13.3561 16.8837C13.4104 16.8457 13.4594 16.7955 13.5015 16.7357C13.5423 16.6787 13.5763 16.6081 13.6007 16.528H13.3275C13.3003 16.5932 13.2582 16.6448 13.2011 16.6842C13.1413 16.7249 13.0693 16.7452 12.9877 16.7452C12.9374 16.7452 12.8899 16.7357 12.845 16.7181C12.8015 16.7004 12.7607 16.6747 12.7267 16.6421C12.6941 16.6109 12.6669 16.5728 12.6465 16.5294C12.6248 16.486 12.6139 16.4385 12.6126 16.3896L12.6112 16.3774H13.6116C13.6089 16.2973 13.5926 16.2185 13.564 16.1439L13.5654 16.1452ZM12.6561 16.1643L12.6669 16.148C12.7281 16.0489 12.8355 15.9959 12.9877 15.9919C13.1372 15.9932 13.2446 16.0462 13.3044 16.148L13.3139 16.1643H12.6547H12.6561ZM15.815 16.3638V15.3213C15.7361 15.2751 15.6532 15.2385 15.5662 15.21V15.8941L15.5472 15.8765C15.5282 15.8588 15.5051 15.8412 15.4765 15.8249C15.448 15.8086 15.4194 15.795 15.3882 15.7828C15.3569 15.7706 15.3243 15.7597 15.2903 15.7529C15.2577 15.7448 15.2237 15.7421 15.1897 15.7421C15.1027 15.7421 15.0212 15.7584 14.9464 15.791C14.8703 15.8249 14.805 15.8683 14.7493 15.9226C14.6936 15.9796 14.6487 16.0462 14.6161 16.1195C14.5835 16.1941 14.5672 16.2769 14.5672 16.3624C14.5672 16.4493 14.5835 16.5321 14.6161 16.6068C14.6474 16.6801 14.6936 16.7466 14.7493 16.8036C14.805 16.8593 14.8703 16.9041 14.9464 16.9366C15.0212 16.9692 15.1041 16.9855 15.1897 16.9855C15.2767 16.9855 15.3583 16.9692 15.4344 16.938C15.5078 16.9068 15.5757 16.862 15.6328 16.8063C15.6899 16.7507 15.7348 16.6842 15.766 16.6095C15.7973 16.5348 15.8136 16.452 15.8136 16.3624L15.815 16.3638ZM15.5649 16.3624C15.5649 16.414 15.554 16.4629 15.535 16.5077C15.5146 16.5525 15.4888 16.5932 15.4548 16.6271C15.4194 16.6611 15.38 16.6869 15.3352 16.7072C15.2903 16.7262 15.24 16.7371 15.1911 16.7371H15.1897C15.1394 16.7371 15.0891 16.7262 15.0456 16.7072C14.9994 16.6869 14.96 16.6611 14.926 16.6271C14.892 16.5946 14.8649 16.5538 14.8458 16.5077C14.8254 16.4629 14.8159 16.4127 14.8159 16.3638V16.3624C14.8159 16.3122 14.8268 16.2633 14.8458 16.2185C14.8662 16.1724 14.892 16.133 14.926 16.0991C14.9586 16.0652 14.9981 16.038 15.0456 16.019C15.1367 15.9796 15.2454 15.9796 15.3352 16.019C15.3814 16.0394 15.4208 16.0652 15.4548 16.0991C15.4874 16.133 15.5146 16.1724 15.535 16.2185C15.5554 16.2633 15.5649 16.3122 15.5649 16.3624Z" fill="white"/>
</svg>
