<svg width="36" height="36" viewBox="0 0 36 36" xmlns="http://www.w3.org/2000/svg">
<circle cx="18" cy="18" r="18" fill="white"/>
<path d="M23.9225 10.8008H12.9771C11.7413 10.8008 10.7998 11.7423 10.7998 12.9781V23.9235C10.7998 25.1592 11.7413 26.1008 12.9771 26.1008H23.9225C25.1583 26.1008 26.0998 25.1592 26.0998 23.9235V12.9781C26.0998 11.7423 25.1583 10.8008 23.9225 10.8008ZM18.4498 23.0408C20.9802 23.0408 23.0398 21.04 23.0398 18.6273C23.0398 18.2154 22.981 17.7446 22.8633 17.3916H24.1579V23.6292C24.1579 23.9235 23.9225 24.2177 23.5694 24.2177H13.3302C13.036 24.2177 12.7417 23.9823 12.7417 23.6292V17.3327H14.0952C13.9775 17.7446 13.9187 18.1566 13.9187 18.5685C13.8598 21.04 15.9194 23.0408 18.4498 23.0408ZM18.4498 21.2754C16.8021 21.2754 15.5075 19.9808 15.5075 18.3919C15.5075 16.8031 16.8021 15.5085 18.4498 15.5085C20.0975 15.5085 21.3921 16.8031 21.3921 18.3919C21.3921 20.0396 20.0975 21.2754 18.4498 21.2754ZM24.099 14.9789C24.099 15.3319 23.8048 15.6262 23.4517 15.6262H21.804C21.451 15.6262 21.1567 15.3319 21.1567 14.9789V13.39C21.1567 13.0369 21.451 12.7427 21.804 12.7427H23.4517C23.8048 12.7427 24.099 13.0369 24.099 13.39V14.9789Z" fill="#011E41"/>
</svg>
