<svg width="81" height="75" viewBox="0 0 81 75" fill="none" xmlns="http://www.w3.org/2000/svg">
<path opacity="0.4" d="M68.9996 56.6451C68.9996 66.2706 61.2717 74.0675 51.6462 74.102H51.6117H17.4224C7.83146 74.102 0 66.3396 0 56.7141V56.6796C0 56.6796 0.0206999 41.41 0.0482998 33.7303C0.0517497 32.2882 1.70774 31.4809 2.83589 32.3779C11.033 38.8812 25.692 50.7388 25.8749 50.894C28.3244 52.857 31.4293 53.9645 34.6033 53.9645C37.7773 53.9645 40.8823 52.857 43.3318 50.856C43.5146 50.7353 57.8459 39.2331 66.1672 32.6229C67.2988 31.7224 68.9617 32.5297 68.9651 33.9684C68.9996 41.5894 68.9996 56.6451 68.9996 56.6451Z" fill="#9BC7FD"/>
<path d="M67.1922 21.2253C64.2045 15.5949 58.3257 12 51.8536 12H17.4228C10.9506 12 5.07181 15.5949 2.08413 21.2253C1.41483 22.4845 1.73223 24.0542 2.84658 24.9443L28.4627 45.4338C30.2567 46.8828 32.4302 47.6038 34.6037 47.6038C34.6175 47.6038 34.6278 47.6038 34.6382 47.6038C34.6485 47.6038 34.6623 47.6038 34.6727 47.6038C36.8462 47.6038 39.0196 46.8828 40.8136 45.4338L66.4298 24.9443C67.5441 24.0542 67.8615 22.4845 67.1922 21.2253Z" fill="#9BC7FD"/>
<path d="M77.4163 21.4997C77.4163 31.3968 69.3951 39.4163 59.4997 39.4163C49.6043 39.4163 41.583 31.3968 41.583 21.4997C41.583 11.6061 49.6043 3.58301 59.4997 3.58301C69.3951 3.58301 77.4163 11.6061 77.4163 21.4997Z" fill="#FFD700"/>
<path d="M65.9024 28.3338C65.6677 28.3338 65.4312 28.2729 65.2144 28.1457L58.1803 23.9496C57.7754 23.706 57.5264 23.267 57.5264 22.794V13.7515C57.5264 13.0097 58.1284 12.4077 58.8701 12.4077C59.6119 12.4077 60.2139 13.0097 60.2139 13.7515V22.0308L66.5922 25.8345C67.2282 26.2161 67.4379 27.0403 67.058 27.6781C66.8054 28.0991 66.3593 28.3338 65.9024 28.3338Z" fill="#011228"/>
</svg>
