<svg width="20" height="20" viewBox="0 0 20 20" xmlns="http://www.w3.org/2000/svg">
<path d="M9.62884 7.53075L12.293 9.30742C12.4071 9.38352 12.5007 9.48745 12.5654 9.6084C12.6302 9.72935 12.664 9.86441 12.664 10.0016C12.664 10.1388 12.6302 10.2738 12.5654 10.3948C12.5007 10.5157 12.4071 10.6188 12.293 10.6949L9.62884 12.4716C9.50334 12.5553 9.35746 12.6034 9.20677 12.6107C9.05608 12.618 8.90623 12.5843 8.77321 12.5131C8.64018 12.442 8.52897 12.336 8.45145 12.2066C8.37392 12.0772 8.33299 11.9291 8.33301 11.7783V8.22575C8.33268 8.07474 8.3734 7.92648 8.4508 7.79682C8.52821 7.66715 8.63939 7.56096 8.77247 7.48958C8.90555 7.41821 9.05552 7.38434 9.20636 7.39159C9.35719 7.39884 9.50323 7.44694 9.62884 7.53075Z" stroke-width="1.7" stroke-linecap="round" stroke-linejoin="round"/>
<path d="M16.9291 12.8701C17.306 11.9602 17.5 10.9849 17.5 10C17.5 8.01088 16.7098 6.10322 15.3033 4.6967C13.8968 3.29018 11.9891 2.5 10 2.5C8.01088 2.5 6.10322 3.29018 4.6967 4.6967C3.29018 6.10322 2.5 8.01088 2.5 10C2.5 10.9849 2.69399 11.9602 3.0709 12.8701C3.44781 13.7801 4.00026 14.6069 4.6967 15.3033C5.39314 15.9997 6.21993 16.5522 7.12987 16.9291C8.03982 17.306 9.01509 17.5 10 17.5C10.9849 17.5 11.9602 17.306 12.8701 16.9291C13.7801 16.5522 14.6069 15.9997 15.3033 15.3033C15.9997 14.6069 16.5522 13.7801 16.9291 12.8701Z" stroke-width="1.7" stroke-linecap="round" stroke-linejoin="round"/>
</svg>
