<svg width="16" height="16" viewBox="0 0 16 16" xmlns="http://www.w3.org/2000/svg">
<path opacity="0.4" d="M15.5 8.00362C15.5 12.1353 12.1337 15.5 8 15.5C3.86631 15.5 0.5 12.1353 0.5 8.00362C0.5 3.86469 3.86631 0.5 8 0.5C12.1337 0.5 15.5 3.86469 15.5 8.00362Z" fill="#9BC7FD"/>
<path d="M11 8.00365C11 8.1932 10.9403 8.38348 10.821 8.53585C10.7987 8.56574 10.6942 8.68894 10.6122 8.76914L10.5675 8.81288C9.94105 9.47704 8.38246 10.4758 7.59197 10.7959C7.59197 10.8032 7.12216 10.9934 6.89844 11H6.86861C6.52557 11 6.2049 10.8112 6.04084 10.505C5.95135 10.3366 5.86932 9.84812 5.86186 9.84156C5.79474 9.4034 5.75 8.73269 5.75 7.99636C5.75 7.2243 5.79474 6.52369 5.87678 6.09356C5.87678 6.08627 5.95881 5.69259 6.01101 5.56136C6.09304 5.37254 6.24219 5.21142 6.42862 5.10936C6.57777 5.03718 6.73438 5 6.89844 5C7.06996 5.00802 7.39062 5.11665 7.5174 5.16768C8.35263 5.48846 9.94851 6.53827 10.56 7.17983C10.6644 7.2819 10.7763 7.40656 10.8061 7.43499C10.9329 7.59538 11 7.79222 11 8.00365Z" fill="#9BC7FD"/>
</svg>
