<svg width="20" height="20" viewBox="0 0 20 20" xmlns="http://www.w3.org/2000/svg">
<path d="M19.3182 11.7861C19.233 11.8834 18.8352 12.2965 18.5227 12.5638L18.3523 12.7096C15.9659 14.921 10.0284 18.2503 7.01705 19.3196C7.01705 19.3439 5.22727 19.9757 4.375 20H4.26136C2.95455 20 1.73295 19.3682 1.10795 18.3475C0.767045 17.7886 0.454545 16.1604 0.426136 16.1361C0.170455 14.678 0 12.4447 0 9.98785C0 7.41191 0.170455 5.07898 0.482955 3.6452C0.482955 3.6209 0.795455 2.30863 0.994318 1.8712C1.30682 1.23937 1.875 0.704739 2.58523 0.36452C3.15341 0.121507 3.75 0 4.375 0C5.02841 0.0243013 6.25 0.391252 6.73295 0.558931C9.91477 1.62819 15.9943 5.12758 18.3239 7.2661C18.7216 7.60632 19.1477 8.01944 19.2614 8.11665C19.7443 8.65128 20 9.30741 20 10.0146C20 10.644 19.7727 11.2758 19.3182 11.7861Z"/>
</svg>
