<svg width="24" height="24" viewBox="0 0 24 24" fill="none" xmlns="http://www.w3.org/2000/svg">
<rect width="24" height="24" rx="12" fill="white"/>
<g clip-path="url(#clip0)">
<path d="M20.0789 12.7227V12.1718V11.0711H18.4028H17.2852V10.5202H20.0789V9.41895H17.2852H15.6091V10.5202V11.0711V12.1718H17.2852H18.4028V12.7227H15.6091V13.824H18.4028H20.0789V12.7227Z" fill="black"/>
<path d="M15.0507 9.41895H13.9331V13.8234H15.0507V9.41895Z" fill="black"/>
<path d="M8.90479 9.41895V10.5202H12.257V11.0711H10.0218H8.90479V12.1718V13.824H10.0218V12.1886L11.6985 13.824H13.3746L11.6257 12.1718H12.257H13.3746V11.0711V10.5202V9.41895H12.257H8.90479Z" fill="black"/>
<path d="M5.552 12.1716H6.66667V11.0732H5.552V12.1716ZM5.83184 11.3461H6.39035V11.8964H5.83184V11.3461Z" fill="black"/>
<path d="M4.99333 9.41895H4.01536C3.9784 9.41922 3.94302 9.43375 3.9168 9.45941C3.90375 9.47222 3.89341 9.48745 3.88636 9.50422C3.87931 9.52098 3.8757 9.53896 3.87573 9.55711V13.6858C3.8757 13.704 3.87931 13.7219 3.88636 13.7387C3.89341 13.7555 3.90375 13.7707 3.9168 13.7835C3.94308 13.809 3.97847 13.8233 4.01536 13.8234H6.66944V12.725H4.99333V9.41895Z" fill="black"/>
<path d="M8.20608 9.41895H5.552V10.5202H7.2287V12.1718H8.34336V9.55711C8.34371 9.52074 8.3296 9.48567 8.30406 9.45941C8.27787 9.43404 8.2428 9.41955 8.20608 9.41895Z" fill="black"/>
<path d="M8.34612 12.7227H7.22852V15.2003H8.34612V12.7227Z" fill="black"/>
<path d="M5.43515 8.7998H3.33958C3.30259 8.79996 3.26717 8.8145 3.24102 8.84027C3.21487 8.86604 3.20011 8.90095 3.19995 8.93739V11.0023H3.4792V9.21025C3.47997 9.17421 3.495 9.13989 3.52109 9.11462C3.54717 9.08934 3.58225 9.07512 3.61883 9.07497H5.4375L5.43515 8.7998Z" fill="black"/>
<path d="M20.5208 12.3779V14.17C20.5206 14.2064 20.5059 14.2413 20.4797 14.2671C20.4536 14.2929 20.4182 14.3074 20.3812 14.3076H18.5625V14.5804H20.6581C20.6766 14.5807 20.695 14.5773 20.7121 14.5705C20.7293 14.5637 20.745 14.5536 20.7582 14.5408C20.7714 14.528 20.7818 14.5128 20.789 14.496C20.7962 14.4791 20.8 14.4611 20.8 14.4429V12.3779H20.5208Z" fill="black"/>
</g>
<defs>
<clipPath id="clip0">
<rect width="17.6" height="6.4" fill="white" transform="translate(3.19995 8.7998)"/>
</clipPath>
</defs>
</svg>
