<svg width="25" height="25" viewBox="0 0 25 25" xmlns="http://www.w3.org/2000/svg">
<path fill-rule="evenodd" clip-rule="evenodd" d="M12.2717 3.00018C17.4962 3.00018 21.7308 7.14218 21.7308 12.2502C21.7308 17.3582 17.4962 21.5002 12.2717 21.5002C7.04816 21.5002 2.8125 17.3582 2.8125 12.2502C2.8125 7.14218 7.04816 3.00018 12.2717 3.00018Z" stroke="white" stroke-width="1.5" stroke-linecap="round" stroke-linejoin="round"/>
<path d="M11.0508 13.7422C11.0508 13.2227 11.1152 12.8086 11.2441 12.5C11.373 12.1914 11.627 11.8535 12.0059 11.4863C12.3887 11.1152 12.6309 10.8516 12.7324 10.6953C12.8887 10.457 12.9668 10.1992 12.9668 9.92188C12.9668 9.55469 12.875 9.27539 12.6914 9.08398C12.5117 8.88867 12.2461 8.79102 11.8945 8.79102C11.5586 8.79102 11.2871 8.88672 11.0801 9.07812C10.877 9.26562 10.7754 9.52148 10.7754 9.8457H9.35156C9.35938 9.1543 9.59375 8.60742 10.0547 8.20508C10.5195 7.80273 11.1328 7.60156 11.8945 7.60156C12.6797 7.60156 13.291 7.80078 13.7285 8.19922C14.1699 8.59766 14.3906 9.1543 14.3906 9.86914C14.3906 10.5059 14.0938 11.1328 13.5 11.75L12.7793 12.459C12.5215 12.752 12.3887 13.1797 12.3809 13.7422H11.0508ZM10.9512 15.5645C10.9512 15.334 11.0234 15.1484 11.168 15.0078C11.3125 14.8633 11.5078 14.791 11.7539 14.791C12.0039 14.791 12.2012 14.8652 12.3457 15.0137C12.4902 15.1582 12.5625 15.3418 12.5625 15.5645C12.5625 15.7793 12.4922 15.959 12.3516 16.1035C12.2109 16.248 12.0117 16.3203 11.7539 16.3203C11.4961 16.3203 11.2969 16.248 11.1562 16.1035C11.0195 15.959 10.9512 15.7793 10.9512 15.5645Z" fill="white"/>
</svg>
