<svg width="25" height="25" viewBox="0 0 25 25" xmlns="http://www.w3.org/2000/svg">
<path fill-rule="evenodd" clip-rule="evenodd" d="M19.6382 5.87377C20.126 6.02677 20.452 6.43877 20.452 6.90177V13.6748C20.452 15.5678 19.684 17.3748 18.3276 18.7748C17.6456 19.4798 16.7827 20.0288 15.8662 20.4728L11.8943 22.3948L7.91577 20.4718C6.99815 20.0278 6.13413 19.4798 5.45094 18.7738C4.0935 17.3738 3.32324 15.5658 3.32324 13.6708V6.90177C3.32324 6.43877 3.64921 6.02677 4.13704 5.87377L11.4846 3.56077C11.7458 3.47877 12.0305 3.47877 12.2906 3.56077L19.6382 5.87377Z" stroke="white" stroke-width="1.5" stroke-linecap="round" stroke-linejoin="round"/>
<path d="M8.98535 12.6676L11.0974 14.5606L15.4488 10.6626" stroke="white" stroke-width="1.5" stroke-linecap="round" stroke-linejoin="round"/>
</svg>
