<svg width="25" height="24" viewBox="0 0 25 24" fill="none" xmlns="http://www.w3.org/2000/svg">
<rect x="0.98999" width="24" height="24" rx="12" fill="white"/>
<path d="M9.49637 12.2749C8.42464 12.0536 8.19726 11.9135 8.19726 11.476C8.19726 11.1712 8.37916 10.9684 8.75156 10.8614C9.1424 10.7471 10.1588 10.7889 10.7709 10.9438C11.3387 11.0876 11.7296 11.0987 11.9139 10.9758C12.0281 10.8768 12.1202 10.755 12.1843 10.6181C12.3281 10.3244 12.5002 9.60904 12.4559 9.49228C12.4215 9.40379 11.7836 9.18502 11.2269 9.07195C9.29726 8.67496 7.66262 8.94904 6.73714 9.80938C6.48865 10.0316 6.29219 10.3058 6.16175 10.6125C6.03132 10.9193 5.97012 11.251 5.9825 11.5841C5.9825 12.2847 6.21357 12.8648 6.65971 13.2864C7.16608 13.7645 7.65156 13.971 8.89413 14.2352C10.0482 14.481 10.3174 14.6371 10.3272 15.0722C10.337 15.5478 9.99291 15.7715 9.1805 15.817C8.34089 15.8578 7.50286 15.7091 6.72854 15.3819L6.2529 15.1779C6.16809 15.141 5.91245 15.7027 5.82887 16.1071C5.7453 16.5114 5.79815 16.8162 5.97267 17.0227C6.21848 17.3177 7.00262 17.6028 7.83592 17.7024C9.61927 17.9666 11.673 17.7798 12.467 16.1513C12.6907 15.5183 12.6354 14.4626 12.3674 13.8898C11.9852 13.0737 11.1888 12.6251 9.49637 12.2749Z" fill="black"/>
<path d="M16.2622 7.66965C16.4453 7.57501 16.5891 7.55535 17.281 7.53077C18.0467 7.50373 18.0947 7.49635 18.2213 7.37713C18.4019 7.20753 18.504 6.83635 18.5421 6.20585L18.574 5.68104L18.4253 5.64171C18.042 5.60828 17.6572 5.59475 17.2724 5.60115C16.1171 5.60115 15.6562 5.6835 14.9962 6.01657C14.4608 6.30354 14.0211 6.74107 13.7315 7.27512C13.3702 8.03468 13.3899 7.71389 13.3739 12.9706L13.3579 17.7184H15.6255V10.9844L16.5977 10.9672C17.4838 10.9525 17.5809 10.9414 17.6842 10.8443C17.7456 10.7889 17.7989 10.7252 17.8427 10.655C17.9288 10.494 17.9988 9.81558 17.9656 9.46653L17.9324 9.1187H15.6255V8.87289C15.6255 8.32351 15.859 7.88105 16.2622 7.66965Z" fill="black"/>
<path d="M20.27 14.5781H17.1519V17.6286H20.27V14.5781Z" fill="#E4005C"/>
</svg>
