<svg width="25" height="25" viewBox="0 0 25 25" xmlns="http://www.w3.org/2000/svg">
<path fill-rule="evenodd" clip-rule="evenodd" d="M13.0017 3.69083L15.3701 8.34983C15.4887 8.58483 15.7178 8.74883 15.9837 8.78683L21.2859 9.53583C21.5007 9.56383 21.6939 9.67383 21.8258 9.84183C22.0733 10.1568 22.0355 10.6028 21.7389 10.8738L17.896 14.5078C17.7006 14.6878 17.6137 14.9518 17.6648 15.2088L18.5852 20.3368C18.6496 20.7618 18.3531 21.1598 17.9184 21.2288C17.7385 21.2558 17.5544 21.2278 17.3908 21.1488L12.6684 18.7278C12.4311 18.6018 12.1468 18.6018 11.9096 18.7278L7.15239 21.1618C6.75459 21.3598 6.26783 21.2128 6.05104 20.8318C5.96821 20.6778 5.93957 20.5028 5.96821 20.3318L6.88856 15.2038C6.93457 14.9478 6.84765 14.6848 6.65745 14.5038L2.79402 10.8708C2.47905 10.5648 2.47701 10.0668 2.79095 9.75883C2.79197 9.75783 2.793 9.75583 2.79402 9.75483C2.92389 9.63983 3.08342 9.56283 3.25624 9.53283L8.5595 8.78383C8.82436 8.74283 9.0524 8.58083 9.17307 8.34583L11.5394 3.69083C11.6345 3.50183 11.8032 3.35683 12.0078 3.29083C12.2133 3.22383 12.4383 3.23983 12.6315 3.33483C12.79 3.41183 12.9199 3.53683 13.0017 3.69083Z" stroke="white" stroke-width="1.5" stroke-linecap="round" stroke-linejoin="round"/>
</svg>
