<svg width="25" height="24" viewBox="0 0 25 24" fill="none" xmlns="http://www.w3.org/2000/svg">
<rect x="0.98999" width="24" height="24" rx="12" fill="white"/>
<path d="M15.4702 14.7827L11.4418 15.3032L8.99561 11.8857L10.5822 7.9477L14.615 7.4248L17.059 10.8423L15.4702 14.7827Z" fill="#FEFEFE"/>
<path d="M16.6132 15.1797L12.5826 15.7003L10.1387 12.2828L11.7253 8.34478L15.7558 7.82422L18.1998 11.2417L16.6132 15.1797Z" fill="#757475"/>
<path fill-rule="evenodd" clip-rule="evenodd" d="M15.9496 15.4059C15.0944 18.2935 13.6824 20.1656 12.3057 19.9882C10.6506 19.7734 9.52807 16.1832 10.1181 11.9651C10.7103 7.73757 12.4648 4.68191 14.2282 4.8033C15.3817 4.88266 16.2811 6.53071 16.5352 8.75534C16.2148 7.49713 15.7352 6.19457 14.9132 6.08018C13.7796 5.92378 12.2947 8.33749 11.6848 11.6663C11.1169 14.7593 11.5677 17.8406 12.8935 18.0227C13.7509 18.1394 15.2115 17.1963 15.9496 15.4036V15.4059Z" fill="#BEBEBF"/>
<path fill-rule="evenodd" clip-rule="evenodd" d="M16.7098 15.1326C18.2522 14.3973 19.8167 13.5453 19.6686 12.5252C19.4432 10.9775 16.0446 10.3963 13.0659 10.7067C11.7511 10.8421 7.04876 11.8435 7.12389 13.9351C7.14599 14.5444 8.68839 15.3474 9.97888 15.7396C7.97022 15.5015 5.94168 14.4487 5.80025 13.1765C5.58591 11.2553 8.77015 9.28043 12.9665 8.81123C17.1296 8.34436 20.7293 9.48819 20.9768 11.4047C21.1624 12.8473 19.3835 14.2386 16.712 15.1303L16.7098 15.1326Z" fill="#BEBEBF"/>
<path d="M15.4702 14.7827L11.4418 15.3032L8.99561 11.8857L10.5822 7.9477L14.615 7.4248L17.059 10.8423L15.4702 14.7827Z" fill="#E62129"/>
<path fill-rule="evenodd" clip-rule="evenodd" d="M9.98511 13.27C10.0116 12.8452 10.0536 12.4087 10.1155 11.9675C10.3342 10.4081 10.7099 9.00986 11.1872 7.8707L13.0677 7.62793C12.4932 8.62469 11.9827 10.037 11.6822 11.671C11.448 12.9502 11.3861 14.2271 11.4899 15.2986L11.4391 15.3056L9.98511 13.2724V13.27Z" fill="#FEFEFE"/>
<path fill-rule="evenodd" clip-rule="evenodd" d="M17.0564 10.847C15.8653 10.6112 14.4201 10.5669 13.0634 10.7093C12.3143 10.7863 10.4581 11.1458 9.01953 11.8297L9.98077 9.44637C10.8823 9.15458 11.89 8.93515 12.9639 8.8161C13.8611 8.71573 14.7339 8.69005 15.5493 8.72973L17.0586 10.8423L17.0564 10.847Z" fill="#FEFEFE"/>
</svg>
