<svg width="22" height="20" viewBox="0 0 22 20" fill="none" xmlns="http://www.w3.org/2000/svg">
<path fill-rule="evenodd" clip-rule="evenodd" d="M12.3594 0.849609C12.7736 0.849609 13.1094 1.1854 13.1094 1.59961V4.25486C13.1094 4.66907 12.7736 5.00486 12.3594 5.00486C11.9452 5.00486 11.6094 4.66907 11.6094 4.25486V1.59961C11.6094 1.1854 11.9452 0.849609 12.3594 0.849609Z" fill="white"/>
<path fill-rule="evenodd" clip-rule="evenodd" d="M12.3594 14.793C12.7736 14.793 13.1094 15.1288 13.1094 15.543V17.7631C13.1094 18.1773 12.7736 18.5131 12.3594 18.5131C11.9452 18.5131 11.6094 18.1773 11.6094 17.7631V15.543C11.6094 15.1288 11.9452 14.793 12.3594 14.793Z" fill="white"/>
<path fill-rule="evenodd" clip-rule="evenodd" d="M12.3594 6.50586C12.7736 6.50586 13.1094 6.84165 13.1094 7.25586V12.5445C13.1094 12.9587 12.7736 13.2945 12.3594 13.2945C11.9452 13.2945 11.6094 12.9587 11.6094 12.5445V7.25586C11.6094 6.84165 11.9452 6.50586 12.3594 6.50586Z" fill="white"/>
<path fill-rule="evenodd" clip-rule="evenodd" d="M5.3788 1.10047C6.7787 0.856025 8.61084 0.75 11 0.75C13.3892 0.75 15.2213 0.856025 16.6212 1.10047C18.0155 1.34393 19.0594 1.73726 19.8007 2.37278C20.5652 3.02825 20.9215 3.8658 21.0898 4.80368C21.2501 5.69713 21.25 6.7505 21.25 7.89537V7.94867C21.25 8.36288 20.9142 8.69867 20.5 8.69867C20.0351 8.69867 19.7394 8.86794 19.551 9.08333C19.3497 9.31342 19.2319 9.64338 19.2319 9.99953C19.2319 10.3557 19.3497 10.6856 19.551 10.9157C19.7394 11.1311 20.0351 11.3004 20.5 11.3004C20.9142 11.3004 21.25 11.6362 21.25 12.0504V12.1037C21.25 13.2488 21.2501 14.3023 21.0898 15.1959C20.9215 16.1339 20.5652 16.9715 19.8007 17.6271C19.0594 18.2627 18.0155 18.656 16.6212 18.8995C15.2213 19.144 13.3892 19.25 11 19.25C8.61084 19.25 6.77869 19.144 5.3788 18.8995C3.98453 18.656 2.94057 18.2627 2.19931 17.6271C1.43479 16.9715 1.07849 16.1339 0.910224 15.1959C0.749927 14.3023 0.749963 13.2488 0.750001 12.1037L0.750002 12.0504C0.750002 11.6362 1.08579 11.3004 1.5 11.3004C1.96491 11.3004 2.26062 11.1311 2.44902 10.9157C2.65027 10.6856 2.76806 10.3557 2.76806 9.99953C2.76806 9.64338 2.65027 9.31342 2.44902 9.08333C2.26062 8.86794 1.96491 8.69867 1.5 8.69867C1.08579 8.69867 0.750002 8.36288 0.750002 7.94867L0.750001 7.89536C0.749963 6.7505 0.749927 5.69713 0.910227 4.80368C1.0785 3.8658 1.43482 3.02825 2.19934 2.37278C2.9406 1.73726 3.98454 1.34393 5.3788 1.10047ZM2.25116 7.2892C2.79092 7.4256 3.24022 7.70953 3.57807 8.09579C4.04951 8.63478 4.26806 9.33025 4.26806 9.99953C4.26806 10.6688 4.04951 11.3643 3.57807 11.9033C3.24022 12.2895 2.79092 12.5735 2.25116 12.7099C2.25572 13.6053 2.27803 14.3255 2.38666 14.9311C2.51527 15.648 2.75271 16.1257 3.1757 16.4884C3.62193 16.871 4.35923 17.1988 5.63683 17.4219C6.90881 17.644 8.63916 17.75 11 17.75C13.3608 17.75 15.0912 17.644 16.3632 17.4219C17.6408 17.1988 18.3781 16.871 18.8243 16.4884C19.2473 16.1257 19.4847 15.648 19.6133 14.9311C19.722 14.3255 19.7443 13.6053 19.7488 12.7099C19.2091 12.5735 18.7598 12.2895 18.4219 11.9033C17.9505 11.3643 17.7319 10.6688 17.7319 9.99953C17.7319 9.33025 17.9505 8.63478 18.4219 8.09579C18.7598 7.70953 19.2091 7.4256 19.7488 7.2892C19.7443 6.39396 19.722 5.67398 19.6134 5.06857C19.4847 4.35178 19.2473 3.87419 18.8243 3.51155C18.3781 3.12896 17.6408 2.80121 16.3632 2.57811C15.0912 2.356 13.3608 2.25 11 2.25C8.63916 2.25 6.90881 2.356 5.63683 2.57811C4.35921 2.80121 3.62191 3.12896 3.17567 3.51155C2.75269 3.87419 2.51526 4.35178 2.38665 5.06857C2.27803 5.67398 2.25572 6.39396 2.25116 7.2892Z" fill="white"/>
</svg>
