<svg width="52" height="48" viewBox="0 0 52 48" fill="none" xmlns="http://www.w3.org/2000/svg">
<path opacity="0.4" d="M9.89616 13.421L5.58881 16.7663C6.24904 17.6074 6.11538 18.834 5.29398 19.4719L0.165231 23.4552C-0.517934 23.9858 -0.62207 24.9583 -0.074566 25.6558L10.9883 39.7495C14.4665 44.1807 20.8247 45.0543 25.1541 41.6918L30.3409 37.6634C30.7436 37.3506 30.9954 36.8908 31.0505 36.3858C31.1035 35.8823 30.9578 35.3681 30.6357 34.9578C29.4119 33.3986 29.5598 31.3685 30.9822 30.2638C32.4667 29.1108 34.5988 29.4031 35.8085 30.9072C36.4687 31.7483 37.6133 32.0151 38.4547 31.3616L43.5855 27.3767C47.9129 24.0158 48.5847 17.6822 45.1226 13.2715L34.0436 -0.842631C33.4961 -1.54013 32.5184 -1.67236 31.8393 -1.14488L27.5099 2.2176C26.6705 2.86956 25.4598 2.68709 24.7996 1.84598L20.915 4.86304C21.5752 5.70414 21.4395 6.93224 20.6201 7.56863L12.6065 13.7926C11.7851 14.4305 10.5564 14.2621 9.89616 13.421Z" fill="#042752"/>
<path d="M4.41308 -3.5865C5.89561 -4.73793 6.11144 -6.88685 4.95595 -8.39999C4.29573 -9.24109 4.31311 -10.4103 5.13451 -11.0483L10.2833 -15.0472C14.6127 -18.4097 20.9367 -17.5426 24.415 -13.1114L29.6646 -6.42354C30.196 -5.74655 30.1039 -4.75046 29.4228 -4.22143L25.0954 -0.860501C24.2539 -0.206986 24.1242 0.983476 24.8005 1.8451L20.9159 4.86215C20.2396 4.00053 19.025 3.85413 18.2056 4.49053L10.192 10.7145C9.36855 11.354 9.2208 12.5584 9.89712 13.4201L5.58777 16.767C4.91144 15.9054 3.69888 15.7574 2.87748 16.3954L-2.24927 20.3771C-2.93243 20.9077 -3.92424 20.7534 -4.45564 20.0764L-9.70525 13.3886C-13.1835 8.95743 -12.4956 2.64437 -8.16818 -0.716558L-3.11957 -4.63764C-2.71889 -4.94884 -2.20741 -5.08191 -1.70349 -5.01099C-1.19757 -4.94162 -0.731337 -4.67632 -0.409276 -4.26602C0.782351 -2.74793 2.95259 -2.45219 4.41308 -3.5865Z" fill="#042752"/>
</svg>
