<svg width="81" height="86" viewBox="0 0 81 86" fill="none" xmlns="http://www.w3.org/2000/svg">
<g opacity="0.15">
<path opacity="0.4" d="M63.8352 14.6766L59.7255 8.4854C58.454 9.25659 56.7496 8.91704 55.9659 7.73639L51.0725 0.364557C50.4207 -0.617394 49.0692 -0.884157 48.0148 -0.244635L26.7095 12.6775C20.0109 16.7403 17.915 25.116 22.0458 31.3389L26.9946 38.7942C27.3788 39.373 27.9901 39.7697 28.6919 39.9095C29.3918 40.0464 30.1339 39.9194 30.7542 39.5432C33.1111 38.1137 35.942 38.5778 37.2991 40.6223C38.7156 42.7561 38.0136 45.5648 35.7359 46.9827C34.4644 47.7538 33.9333 49.2473 34.7362 50.4567L39.6315 57.8314C43.7603 64.0514 52.5636 65.7803 59.2312 61.7362L80.5675 48.7953C81.6219 48.1558 81.9412 46.8676 81.2932 45.8914L77.1625 39.6685C76.3615 38.462 76.7832 36.8693 78.0547 36.0981L74.3484 30.5145C73.0769 31.2857 71.3706 30.9433 70.5888 29.7655L62.9429 18.247C62.1592 17.0664 62.5637 15.4478 63.8352 14.6766Z" fill="#9BC7FD"/>
<path d="M88.47 9.58761C89.8845 11.7185 92.873 12.2889 95.156 10.9446C96.4275 10.1735 98.0672 10.3502 98.851 11.5309L103.763 18.9315C107.894 25.1544 105.812 33.4853 99.1136 37.5482L89.0037 43.6801C87.9803 44.3008 86.5939 44.0471 85.944 43.068L81.8152 36.848C81.0124 35.6386 79.3582 35.309 78.0557 36.099L74.3493 30.5154C75.6518 29.7254 76.0234 28.1228 75.2416 26.945L67.5956 15.4265C66.81 14.243 65.1386 13.8875 63.8361 14.6775L59.7245 8.48343C61.027 7.69343 61.4005 6.09365 60.6168 4.91301L55.7253 -2.45595C55.0735 -3.4379 55.4257 -4.74206 56.4491 -5.36277L66.559 -11.4947C73.2576 -15.5575 82.0298 -13.8098 86.1587 -7.58983L90.9756 -0.333184C91.3579 0.242741 91.4749 0.943225 91.3064 1.60682C91.1399 2.2733 90.7036 2.86105 90.0833 3.23724C87.7884 4.62914 87.0765 7.48836 88.47 9.58761Z" fill="#9BC7FD"/>
</g>
</svg>
