<svg width="25" height="24" viewBox="0 0 25 24" fill="none" xmlns="http://www.w3.org/2000/svg">
<rect x="0.987793" width="24" height="24" rx="12" fill="white"/>
<path d="M15.9815 16.6215C15.1196 17.272 13.9731 17.644 12.8388 17.644C10.0132 17.644 8.53332 16.0665 8.53332 14.5094C8.53332 13.5845 9.22448 12.6189 10.3771 12.6189C11.0581 12.6189 12.1192 12.9543 11.9871 14.2797C11.9667 14.1455 11.7919 13.6739 11.2776 13.6739C10.991 13.6739 10.7491 13.9097 10.7491 14.1903C10.7491 14.3041 10.7227 14.3366 10.7003 14.3366C10.5092 14.3366 10.2714 14.0561 10.3202 13.5865C9.58022 14.4118 10.1067 14.9973 10.3649 15.2371C10.4218 15.29 10.5112 15.3713 10.5112 15.4018C10.5112 15.4831 10.2998 15.6152 9.76724 15.5665C10.6962 16.6723 11.7756 16.3735 12.3489 16.2129C12.4912 16.1722 12.662 16.0991 12.7067 16.1661C12.7819 16.2678 12.5806 16.7435 12.3062 16.9915C13.8694 16.7882 14.3837 15.8897 14.6419 15.4201C14.7293 15.2615 14.8045 15.1253 14.8675 15.1253C15.0302 15.1253 15.1745 15.7901 15.0668 16.3023C16.1035 15.3368 15.8047 14.3 15.6542 13.8365C15.6177 13.7227 15.5851 13.6251 15.5851 13.5682C15.5851 13.4828 15.6116 13.4584 15.6725 13.4442C15.9327 13.4442 16.2336 13.5377 16.5954 13.7085C15.6359 11.4643 12.3204 11.7712 11.5134 11.2752C12.1233 11.2427 12.8957 10.7955 13.5787 10.3564C13.8186 10.1999 14.0056 10.0454 14.1561 9.92136C14.3126 9.79126 14.4488 9.67742 14.522 9.67742C14.7232 9.67742 14.7517 10.269 14.648 10.6328C15.1521 10.3076 15.39 9.81768 15.39 9.3603C15.39 8.90495 15.1379 8.62036 14.9712 8.43131C14.9204 8.37236 14.8493 8.29308 14.8472 8.26665C14.8472 8.24023 14.8675 8.20973 14.9041 8.18331C15.0769 8.05524 15.4164 8.00849 15.7701 8.08777C14.9915 7.08762 14.026 7.37222 13.4954 7.54501C13.3348 7.59786 13.097 7.67104 13.097 7.60599C13.097 7.41694 13.347 7.03071 13.7902 6.76237C12.8856 6.70139 11.6415 7.38035 10.747 7.86009C10.0152 8.25039 9.32612 8.61833 8.92972 8.61833C8.68578 8.61833 8.6004 8.53092 8.6004 8.43944C8.6004 7.76048 11.0032 5.94925 13.5401 5.94925C14.5016 5.94925 15.2883 6.18709 15.8128 6.63634C16.2682 7.02664 16.5202 7.5755 16.5202 8.18534C16.5202 9.12043 16.0771 9.76483 15.8128 10.1511C15.6766 10.3482 15.6014 10.458 15.6014 10.5739C15.6014 10.7548 15.7701 10.8788 16.0506 11.0862C16.5995 11.4907 17.5204 12.1696 17.5204 13.5601C17.5204 15.1335 16.6869 16.093 15.9856 16.6215H15.9815ZM13.5523 5.60164H13.5056C12.3509 5.60774 11.0459 5.99194 9.92173 6.65464C8.90329 7.25635 8.2467 7.95767 8.2467 8.43944C8.2467 8.55531 8.29142 8.66102 8.3768 8.74436C8.69595 9.06148 9.58225 9.05335 10.6109 9.05335C12.1375 9.05335 12.7677 9.13669 12.7677 9.38063C12.7677 9.67539 10.9666 10.4011 10.9666 11.0333C10.9666 11.7651 12.477 11.9013 13.162 12.0233C13.8064 12.1391 13.8735 12.4888 13.8735 12.7266C13.8735 13.1738 13.7088 13.5723 13.41 13.8447C13.1254 14.1049 12.7758 14.2675 12.2615 14.2451C12.4261 13.0681 11.5907 12.2753 10.3771 12.2753C9.00697 12.2753 8.18774 13.4097 8.18774 14.5074C8.18774 16.2393 9.78553 17.9916 12.8408 17.9916C14.0504 17.9916 15.2721 17.5932 16.1929 16.898C16.9552 16.3227 17.8659 15.2758 17.8659 13.558C17.8659 11.9928 16.819 11.2183 16.256 10.8036C16.1421 10.7203 16.0059 10.6186 15.9592 10.5637C15.9836 10.5149 16.0466 10.4235 16.0994 10.3462C16.3678 9.95388 16.8678 9.22614 16.8678 8.18331C16.8678 6.99411 15.9998 5.60571 13.5564 5.59961L13.5523 5.60164ZM12.168 14.5785C12.7717 14.611 13.2677 14.4484 13.6418 14.1049C14.0097 13.7695 14.2191 13.2674 14.2191 12.7287C14.2191 12.4237 14.1113 12.2042 13.8715 12.0151C14.7659 12.1981 15.7254 12.6555 16.2194 13.371C15.9632 13.2816 15.8026 13.2572 15.6359 13.2572C15.5079 13.2572 15.394 13.3975 15.394 13.5682C15.394 13.6556 15.4286 13.7613 15.4713 13.8935C15.6055 14.3082 15.823 14.9749 15.2619 15.8145C15.2721 15.4669 15.1847 15.1884 15.0729 15.0501C14.9956 14.9546 14.9163 14.9343 14.8655 14.9343C14.6927 14.9343 14.6013 15.0989 14.4752 15.3246C14.2475 15.7352 13.8776 16.404 12.7107 16.7292C12.8774 16.4751 12.9343 16.2007 12.8734 16.0543C12.8429 15.9812 12.7819 15.9385 12.7107 15.9385C12.7087 15.9385 12.7087 15.9385 12.7067 15.9385C12.5949 15.9425 12.4546 15.9832 12.294 16.0279C11.7675 16.1763 10.993 16.3918 10.1901 15.7474C10.3527 15.7352 10.495 15.6844 10.5905 15.6031C10.6596 15.5441 10.6962 15.4709 10.6962 15.3977C10.6962 15.288 10.6048 15.2026 10.4889 15.0949C10.2592 14.8834 9.95832 14.6029 10.2002 14.0175C10.2327 14.1455 10.2917 14.2594 10.373 14.3508C10.4706 14.4586 10.5865 14.5196 10.6942 14.5196C10.93 14.5196 10.93 14.3183 10.93 14.1842C10.93 14.0093 11.0886 13.8548 11.2715 13.8548C11.7878 13.8548 11.981 14.6151 11.8102 15.0298C11.981 14.8977 12.1151 14.7025 12.1639 14.5745L12.168 14.5785ZM11.3183 11.0353H11.3142C11.3203 10.8422 11.8468 10.5068 12.1964 10.2832C12.7107 9.95591 13.1153 9.69572 13.1153 9.38266C13.1153 9.2546 13.0665 9.13873 12.973 9.04725C12.6254 8.69964 11.6455 8.70371 10.6088 8.70777C10.2307 8.7098 9.83025 8.722 9.45012 8.68948C9.83838 8.55938 10.312 8.30731 10.8324 8.02881C11.5968 7.62022 12.4485 7.16487 13.2494 6.98192C13.038 7.19333 12.8978 7.44946 12.8978 7.65884C12.8978 7.74422 12.9506 7.8357 13.0949 7.8357C13.223 7.8357 13.3755 7.78691 13.5503 7.72796C14.0138 7.5755 14.6317 7.37425 15.329 7.88652C15.0912 7.88448 14.896 7.95157 14.7842 8.03695C14.6765 8.12029 14.6541 8.20973 14.6541 8.26869C14.6541 8.36423 14.7273 8.44554 14.8269 8.55938C14.9834 8.73623 15.1989 8.97813 15.1989 9.36234C15.1989 9.68149 15.0647 10.0128 14.8716 10.2486C14.9001 10.0413 14.8635 9.73434 14.7415 9.59408C14.6846 9.52699 14.6073 9.49243 14.5199 9.49243C14.3797 9.49243 14.2414 9.60627 14.0341 9.77906C13.8877 9.90103 13.7068 10.0515 13.4751 10.1999C12.79 10.641 12.0135 11.0902 11.4423 11.0902C11.4077 11.0902 11.3183 11.0801 11.3183 11.0353Z" fill="#332C2B"/>
</svg>
