<svg width="36" height="36" viewBox="0 0 36 36" xmlns="http://www.w3.org/2000/svg">
<circle cx="18" cy="18" r="18" fill="white"/>
<path d="M27.5404 13.4092C26.9104 13.6792 26.1904 13.8592 25.4704 13.9492C26.1904 13.4992 26.8204 12.7792 27.0904 11.9692C26.3704 12.4192 25.6504 12.6892 24.7504 12.8692C24.1204 12.1492 23.1304 11.6992 22.1404 11.6992C20.1604 11.6992 18.5404 13.3192 18.5404 15.2992C18.5404 15.5692 18.5404 15.8392 18.6304 16.1092C15.6604 15.9292 12.9604 14.4892 11.1604 12.3292C10.8904 12.8692 10.7104 13.4992 10.7104 14.1292C10.7104 15.3892 11.3404 16.4692 12.3304 17.0992C11.7004 17.0992 11.1604 16.9192 10.7104 16.6492C10.7104 18.3592 11.9704 19.8892 13.5904 20.1592C13.3204 20.2492 12.9604 20.2492 12.6004 20.2492C12.3304 20.2492 12.1504 20.2492 11.8804 20.1592C12.3304 21.5992 13.6804 22.6792 15.3004 22.6792C14.0404 23.6692 12.5104 24.2092 10.8004 24.2092C10.5304 24.2092 10.2604 24.2092 9.90039 24.1192C11.5204 25.1092 13.4104 25.7392 15.4804 25.7392C22.1404 25.7392 25.7404 20.2492 25.7404 15.4792V15.0292C26.4604 14.7592 27.0904 14.1292 27.5404 13.4092Z" fill="#011E41"/>
</svg>
