<svg width="24" height="24" viewBox="0 0 24 24" xmlns="http://www.w3.org/2000/svg">
<circle cx="12.0008" cy="9.3885" r="2.3885" stroke="white" stroke-width="1.3" stroke-linecap="round" stroke-linejoin="round"/>
<path fill-rule="evenodd" clip-rule="evenodd" d="M8.21192 15.0989C8.21128 14.931 8.24883 14.7652 8.32174 14.6139C8.55052 14.1563 9.19569 13.9138 9.73104 13.804C10.1171 13.7216 10.5086 13.6666 10.9024 13.6393C11.6316 13.5752 12.365 13.5752 13.0942 13.6393C13.488 13.6669 13.8794 13.7219 14.2655 13.804C14.8009 13.9138 15.4461 14.1335 15.6748 14.6139C15.8215 14.9222 15.8215 15.2802 15.6748 15.5885C15.4461 16.069 14.8009 16.2886 14.2655 16.3938C13.8799 16.4796 13.4883 16.5362 13.0942 16.5631C12.5007 16.6135 11.9044 16.6226 11.3097 16.5906C11.1724 16.5906 11.0397 16.5906 10.9024 16.5631C10.5097 16.5366 10.1197 16.48 9.73562 16.3938C9.19569 16.2886 8.5551 16.069 8.32174 15.5885C8.24921 15.4355 8.21169 15.2683 8.21192 15.0989Z" stroke="white" stroke-width="1.3" stroke-linecap="round" stroke-linejoin="round"/>
<path fill-rule="evenodd" clip-rule="evenodd" d="M15.909 2.74982C15.909 2.74982 8.23198 2.75382 8.21998 2.75382C5.45998 2.77082 3.75098 4.58682 3.75098 7.35682V16.5528C3.75098 19.3368 5.47298 21.1598 8.25698 21.1598C8.25698 21.1598 15.933 21.1568 15.946 21.1568C18.706 21.1398 20.416 19.3228 20.416 16.5528V7.35682C20.416 4.57282 18.693 2.74982 15.909 2.74982Z" stroke="white" stroke-width="1.5" stroke-linecap="round" stroke-linejoin="round"/>
</svg>
