<svg width="100" height="103" viewBox="0 0 100 103" fill="none" xmlns="http://www.w3.org/2000/svg">
<path fill-rule="evenodd" clip-rule="evenodd" d="M91.6515 37.8964H74.0071C65.796 37.9108 59.1441 44.3964 59.1293 52.4024C59.1182 60.4263 65.7775 66.9408 74.0071 66.9517H91.6664V68.2264C91.6664 82.2232 83.1812 90.5 68.8219 90.5H31.1812C16.8182 90.5 8.33301 82.2232 8.33301 68.2264V37.7411C8.33301 23.7443 16.8182 15.5 31.1812 15.5H68.8071C83.1663 15.5 91.6515 23.7443 91.6515 37.7411V37.8964ZM28.0812 37.8638H51.5812H51.596H51.6256C53.3849 37.8566 54.8071 36.4591 54.7997 34.7401C54.7923 33.0249 53.3553 31.6382 51.596 31.6454H28.0812C26.333 31.6526 24.9145 33.0357 24.9071 34.7438C24.8997 36.4591 26.3219 37.8566 28.0812 37.8638Z" fill="#062851"/>
<path opacity="0.4" d="M66.8219 54.2361C67.6932 58.1994 71.168 60.9878 75.1351 60.9153H88.6765C90.3271 60.9153 91.666 59.5483 91.666 57.8585V47.3104C91.6625 45.6243 90.3271 44.2536 88.6765 44.25H74.8164C70.3037 44.2645 66.6589 48.0102 66.666 52.6262C66.666 53.1664 66.7192 53.7067 66.8219 54.2361Z" fill="#062851"/>
<ellipse cx="74.9997" cy="52.5837" rx="4.16667" ry="4.16667" fill="#062851"/>
<path fill-rule="evenodd" clip-rule="evenodd" d="M83.4998 29.6998C87.0007 29.6998 90.3581 28.3091 92.8336 25.8336C95.3091 23.3581 96.6998 20.0007 96.6998 16.4998C96.6998 12.9989 95.3091 9.64148 92.8336 7.166C90.3581 4.69052 87.0007 3.2998 83.4998 3.2998C79.9989 3.2998 76.6415 4.69052 74.166 7.166C71.6905 9.64148 70.2998 12.9989 70.2998 16.4998C70.2998 20.0007 71.6905 23.3581 74.166 25.8336C76.6415 28.3091 79.9989 29.6998 83.4998 29.6998ZM81.3664 12.0333C81.0552 11.7327 80.6384 11.5664 80.2057 11.5701C79.7731 11.5739 79.3593 11.7474 79.0534 12.0534C78.7474 12.3593 78.5739 12.7731 78.5701 13.2057C78.5664 13.6384 78.7327 14.0552 79.0333 14.3664L81.1667 16.4998L79.0333 18.6333C78.8757 18.7855 78.75 18.9675 78.6635 19.1688C78.577 19.3701 78.5315 19.5867 78.5296 19.8057C78.5277 20.0248 78.5694 20.2421 78.6524 20.4449C78.7354 20.6477 78.8579 20.8319 79.0128 20.9868C79.1677 21.1417 79.352 21.2642 79.5547 21.3472C79.7575 21.4302 79.9748 21.4719 80.1939 21.47C80.413 21.4681 80.6295 21.4226 80.8308 21.3361C81.0321 21.2496 81.2141 21.1239 81.3664 20.9664L83.4998 18.8329L85.6333 20.9664C85.9444 21.2669 86.3612 21.4332 86.7939 21.4295C87.2265 21.4257 87.6403 21.2522 87.9463 20.9463C88.2522 20.6403 88.4257 20.2265 88.4295 19.7939C88.4332 19.3612 88.2669 18.9444 87.9664 18.6333L85.8329 16.4998L87.9664 14.3664C88.2669 14.0552 88.4332 13.6384 88.4295 13.2057C88.4257 12.7731 88.2522 12.3593 87.9463 12.0534C87.6403 11.7474 87.2265 11.5739 86.7939 11.5701C86.3612 11.5664 85.9444 11.7327 85.6333 12.0333L83.4998 14.1667L81.3664 12.0333Z" fill="#EB5757"/>
</svg>
