<svg width="100" height="108" viewBox="0 0 100 108" fill="none" xmlns="http://www.w3.org/2000/svg">
<path fill-rule="evenodd" clip-rule="evenodd" d="M91.652 42.8964H74.0076C65.7965 42.9108 59.1446 49.3964 59.1298 57.4024C59.1187 65.4263 65.7779 71.9408 74.0076 71.9517H91.6668V73.2264C91.6668 87.2232 83.1816 95.5 68.8224 95.5H31.1816C16.8187 95.5 8.3335 87.2232 8.3335 73.2264V42.7411C8.3335 28.7443 16.8187 20.5 31.1816 20.5H68.8076C83.1668 20.5 91.652 28.7443 91.652 42.7411V42.8964ZM28.0817 42.8638H51.5817H51.5965H51.6261C53.3854 42.8566 54.8076 41.4591 54.8002 39.7401C54.7928 38.0249 53.3558 36.6382 51.5965 36.6454H28.0817C26.3335 36.6526 24.915 38.0357 24.9076 39.7438C24.9002 41.4591 26.3224 42.8566 28.0817 42.8638Z" fill="#062851"/>
<path opacity="0.4" d="M66.8229 59.2361C67.6942 63.1994 71.169 65.9878 75.1361 65.9153H88.6775C90.3281 65.9153 91.667 64.5483 91.667 62.8585V52.3104C91.6635 50.6243 90.3281 49.2536 88.6775 49.25H74.8173C70.3047 49.2645 66.6599 53.0102 66.667 57.6262C66.667 58.1664 66.7201 58.7067 66.8229 59.2361Z" fill="#062851"/>
<ellipse cx="75.0002" cy="57.5837" rx="4.16667" ry="4.16667" fill="#062851"/>
<path fill-rule="evenodd" clip-rule="evenodd" d="M94.3002 18.5002C94.3002 22.4254 92.7409 26.1898 89.9654 28.9654C87.1898 31.7409 83.4254 33.3002 79.5002 33.3002C75.575 33.3002 71.8106 31.7409 69.035 28.9654C66.2595 26.1898 64.7002 22.4254 64.7002 18.5002C64.7002 14.575 66.2595 10.8106 69.035 8.03502C71.8106 5.25948 75.575 3.7002 79.5002 3.7002C83.4254 3.7002 87.1898 5.25948 89.9654 8.03502C92.7409 10.8106 94.3002 14.575 94.3002 18.5002ZM81.3502 25.9002C81.3502 26.3908 81.1553 26.8614 80.8083 27.2083C80.4614 27.5553 79.9908 27.7502 79.5002 27.7502C79.0095 27.7502 78.539 27.5553 78.192 27.2083C77.8451 26.8614 77.6502 26.3908 77.6502 25.9002C77.6502 25.4095 77.8451 24.939 78.192 24.592C78.539 24.2451 79.0095 24.0502 79.5002 24.0502C79.9908 24.0502 80.4614 24.2451 80.8083 24.592C81.1553 24.939 81.3502 25.4095 81.3502 25.9002ZM79.5002 9.2502C79.0095 9.2502 78.539 9.44511 78.192 9.79205C77.8451 10.139 77.6502 10.6095 77.6502 11.1002V18.5002C77.6502 18.9908 77.8451 19.4614 78.192 19.8083C78.539 20.1553 79.0095 20.3502 79.5002 20.3502C79.9908 20.3502 80.4614 20.1553 80.8083 19.8083C81.1553 19.4614 81.3502 18.9908 81.3502 18.5002V11.1002C81.3502 10.6095 81.1553 10.139 80.8083 9.79205C80.4614 9.44511 79.9908 9.2502 79.5002 9.2502Z" fill="#FFD700"/>
</svg>
