<svg width="100" height="103" viewBox="0 0 100 103" fill="none" xmlns="http://www.w3.org/2000/svg">
<path fill-rule="evenodd" clip-rule="evenodd" d="M91.6515 37.8964H74.0071C65.796 37.9108 59.1441 44.3964 59.1293 52.4024C59.1182 60.4263 65.7775 66.9408 74.0071 66.9517H91.6664V68.2264C91.6664 82.2232 83.1812 90.5 68.8219 90.5H31.1812C16.8182 90.5 8.33301 82.2232 8.33301 68.2264V37.7411C8.33301 23.7443 16.8182 15.5 31.1812 15.5H68.8071C83.1663 15.5 91.6515 23.7443 91.6515 37.7411V37.8964ZM28.0812 37.8638H51.5812H51.596H51.6256C53.3849 37.8566 54.8071 36.4591 54.7997 34.7401C54.7923 33.0249 53.3553 31.6382 51.596 31.6454H28.0812C26.333 31.6526 24.9145 33.0357 24.9071 34.7438C24.8997 36.4591 26.3219 37.8566 28.0812 37.8638Z" fill="#062851"/>
<path opacity="0.4" d="M66.8219 54.2361C67.6932 58.1994 71.168 60.9878 75.1351 60.9153H88.6765C90.3271 60.9153 91.666 59.5483 91.666 57.8585V47.3104C91.6625 45.6243 90.3271 44.2536 88.6765 44.25H74.8164C70.3037 44.2645 66.6589 48.0102 66.666 52.6262C66.666 53.1664 66.7192 53.7067 66.8219 54.2361Z" fill="#062851"/>
<ellipse cx="74.9997" cy="52.5837" rx="4.16667" ry="4.16667" fill="#062851"/>
<path fill-rule="evenodd" clip-rule="evenodd" d="M96.6998 16.4998C96.6998 20.0007 95.3091 23.3581 92.8336 25.8336C90.3581 28.3091 87.0007 29.6998 83.4998 29.6998C79.9989 29.6998 76.6415 28.3091 74.166 25.8336C71.6905 23.3581 70.2998 20.0007 70.2998 16.4998C70.2998 12.9989 71.6905 9.64148 74.166 7.166C76.6415 4.69052 79.9989 3.2998 83.4998 3.2998C87.0007 3.2998 90.3581 4.69052 92.8336 7.166C95.3091 9.64148 96.6998 12.9989 96.6998 16.4998ZM83.4998 11.5498C83.2099 11.5495 82.925 11.6256 82.6739 11.7705C82.4228 11.9153 82.2142 12.1237 82.0693 12.3748C81.9646 12.5693 81.8219 12.7408 81.6498 12.8791C81.4776 13.0175 81.2794 13.1199 81.0669 13.1802C80.8544 13.2405 80.632 13.2575 80.4128 13.2303C80.1936 13.2031 79.9822 13.1321 79.7909 13.0216C79.5997 12.9111 79.4325 12.7634 79.2995 12.5871C79.1664 12.4108 79.07 12.2096 79.0161 11.9954C78.9623 11.7812 78.9519 11.5584 78.9858 11.3401C79.0196 11.1219 79.0969 10.9126 79.2131 10.7248C79.758 9.78119 80.599 9.04372 81.6056 8.62677C82.6123 8.20981 83.7285 8.13668 84.781 8.41869C85.8335 8.70071 86.7635 9.32213 87.4268 10.1866C88.0902 11.051 88.4498 12.1102 88.4498 13.1998C88.4501 14.2238 88.1329 15.2227 87.5419 16.059C86.9509 16.8953 86.1152 17.5277 85.1498 17.8693V18.1498C85.1498 18.5874 84.976 19.0071 84.6665 19.3165C84.3571 19.626 83.9374 19.7998 83.4998 19.7998C83.0622 19.7998 82.6425 19.626 82.3331 19.3165C82.0236 19.0071 81.8498 18.5874 81.8498 18.1498V16.4998C81.8498 16.0622 82.0236 15.6425 82.3331 15.3331C82.6425 15.0236 83.0622 14.8498 83.4998 14.8498C83.9374 14.8498 84.3571 14.676 84.6665 14.3665C84.976 14.0571 85.1498 13.6374 85.1498 13.1998C85.1498 12.7622 84.976 12.3425 84.6665 12.0331C84.3571 11.7236 83.9374 11.5498 83.4998 11.5498ZM83.4998 24.7498C83.9374 24.7498 84.3571 24.576 84.6665 24.2665C84.976 23.9571 85.1498 23.5374 85.1498 23.0998C85.1498 22.6622 84.976 22.2425 84.6665 21.9331C84.3571 21.6236 83.9374 21.4498 83.4998 21.4498C83.0622 21.4498 82.6425 21.6236 82.3331 21.9331C82.0236 22.2425 81.8498 22.6622 81.8498 23.0998C81.8498 23.5374 82.0236 23.9571 82.3331 24.2665C82.6425 24.576 83.0622 24.7498 83.4998 24.7498Z" fill="#FFD700"/>
</svg>
