<svg width="20" height="20" viewBox="0 0 20 20" fill="none" xmlns="http://www.w3.org/2000/svg">
<circle cx="10" cy="10" r="10"/>
<path d="M13.4994 6.50552C13.2827 6.28885 12.9327 6.28885 12.7161 6.50552L9.99941 9.21663L7.28275 6.49996C7.06608 6.2833 6.71608 6.2833 6.49941 6.49996C6.28275 6.71663 6.28275 7.06663 6.49941 7.2833L9.21608 9.99996L6.49941 12.7166C6.28275 12.9333 6.28275 13.2833 6.49941 13.5C6.71608 13.7166 7.06608 13.7166 7.28275 13.5L9.99941 10.7833L12.7161 13.5C12.9327 13.7166 13.2827 13.7166 13.4994 13.5C13.7161 13.2833 13.7161 12.9333 13.4994 12.7166L10.7827 9.99996L13.4994 7.2833C13.7105 7.07219 13.7105 6.71663 13.4994 6.50552Z" fill="#011228"/>
</svg>
