<svg width="25" height="24" viewBox="0 0 25 24" fill="none" xmlns="http://www.w3.org/2000/svg">
<rect x="0.98999" width="24" height="24" rx="12" fill="white"/>
<path d="M14.9163 5.72882C15.0531 5.64116 15.2192 5.56677 15.3839 5.61459C15.53 5.67038 15.5791 5.8404 15.5765 5.98253C15.5778 7.76112 15.5765 9.53971 15.5765 11.3183C17.2594 11.3183 18.9411 11.317 20.624 11.3183C20.7582 11.3183 20.9202 11.3635 20.972 11.5003C21.0278 11.6637 20.9428 11.8297 20.8697 11.9718C20.4288 12.7821 19.9692 13.583 19.5016 14.3787C19.3635 14.5633 19.1802 14.736 18.949 14.7918C18.7578 14.8383 18.5585 14.8356 18.3633 14.8396C17.8054 14.8409 17.2475 14.8409 16.6883 14.8409C16.4452 14.8396 16.1716 14.8516 15.9803 15.0203C15.8209 15.173 15.8408 15.4188 15.9032 15.6114C16.0387 16.0231 16.2977 16.3778 16.489 16.763C16.2911 16.6302 16.1012 16.4894 15.9179 16.3366C15.3507 15.8345 14.8313 15.278 14.393 14.6603C13.078 12.8365 12.3965 10.6063 12.273 8.37346C12.2518 7.88332 12.4523 7.34802 12.8893 7.09166C13.5654 6.63871 14.2402 6.18443 14.915 5.73015L14.9163 5.72882Z" fill="#00C89E"/>
<path d="M5.80818 9.29517C5.87725 9.14906 6.05392 9.1039 6.20269 9.10655C7.22415 9.10655 8.24561 9.10655 9.26707 9.10655C9.44373 9.11054 9.63102 9.11718 9.79042 9.20352C9.95247 9.29119 10.0747 9.43332 10.1995 9.56482C10.5728 9.98854 10.9447 10.4136 11.3166 10.8373C11.3379 10.8599 11.3764 10.9091 11.4056 10.8665C11.6102 10.6447 11.8054 10.4123 12.0087 10.1878C12.1787 11.273 12.5984 12.3091 13.1656 13.2455C13.8882 14.429 14.8379 15.4678 15.9192 16.3338C16.1012 16.4866 16.2924 16.6274 16.4903 16.7602C16.6139 16.8944 16.7308 17.0352 16.849 17.1733C16.938 17.2769 16.9991 17.4257 16.9433 17.5585C16.8822 17.6913 16.7268 17.7445 16.59 17.7431C15.5579 17.7445 14.5271 17.7431 13.495 17.7431C13.3224 17.7431 13.1404 17.7378 12.9823 17.6595C12.8163 17.5731 12.6888 17.4336 12.5639 17.2982C12.1973 16.8811 11.8307 16.4627 11.4641 16.0443C11.4362 16.011 11.403 15.9831 11.3671 15.9606C10.9779 16.3962 10.5967 16.8386 10.2102 17.2756C10.0826 17.4164 9.95247 17.5625 9.78377 17.6555C9.62704 17.7378 9.44506 17.7445 9.27105 17.7445C8.23764 17.7445 7.20555 17.7445 6.17346 17.7445C6.02469 17.7485 5.84803 17.686 5.80154 17.5306C5.75638 17.3725 5.85201 17.2264 5.95297 17.1149C7.02357 15.8835 8.09684 14.6522 9.17409 13.4262C8.09551 12.1842 7.0063 10.9516 5.93038 9.70827C5.82943 9.59935 5.75239 9.44129 5.81084 9.29384L5.80818 9.29517Z" fill="#002BBA"/>
</svg>
