<svg width="36" height="36" viewBox="0 0 36 36" xmlns="http://www.w3.org/2000/svg">
<circle cx="18" cy="18" r="18" fill="white"/>
<path d="M25.8422 17.0214C25.8422 16.6723 25.784 16.2651 25.784 15.7996C25.7259 15.3342 25.6677 14.8687 25.6095 14.4614C25.4931 13.996 25.3186 13.6469 24.9695 13.356C24.6786 13.0651 24.2713 12.8905 23.864 12.8323C22.5258 12.6578 20.5477 12.5996 17.8713 12.5996C15.1949 12.5996 13.1586 12.6578 11.8786 12.8323C11.4713 12.8905 11.064 13.0651 10.7731 13.356C10.4822 13.6469 10.2495 13.996 10.1331 14.4614C10.0168 14.8687 9.95858 15.276 9.95858 15.7996C9.90039 16.2651 9.90039 16.6723 9.90039 17.0214C9.90039 17.3705 9.90039 17.7778 9.90039 18.3596C9.90039 18.9414 9.90039 19.4069 9.90039 19.6978C9.90039 20.0469 9.95858 20.4542 9.95858 20.9196C10.0168 21.3851 10.0749 21.8505 10.1331 22.2578C10.2495 22.7232 10.424 23.0723 10.7731 23.3632C11.064 23.6542 11.4713 23.8287 11.8786 23.8869C13.2168 24.0614 15.1949 24.1196 17.8713 24.1196C20.5477 24.1196 22.584 24.0614 23.864 23.8869C24.2713 23.8287 24.6786 23.6542 24.9695 23.3632C25.2604 23.0723 25.4931 22.7232 25.6095 22.2578C25.7258 21.8505 25.784 21.4432 25.784 20.9196C25.8422 20.4542 25.8422 20.0469 25.8422 19.6978C25.8422 19.3487 25.8422 18.9414 25.8422 18.3596C25.8422 17.7778 25.8422 17.3123 25.8422 17.0214ZM20.9549 18.8251L16.3586 21.676C16.3004 21.7341 16.184 21.7923 16.0677 21.7923C15.9513 21.7923 15.8931 21.7923 15.7768 21.7342C15.6022 21.6178 15.4858 21.4432 15.4858 21.2105V15.4505C15.4858 15.2178 15.6022 15.0432 15.7768 14.9269C15.9513 14.8105 16.184 14.8105 16.3586 14.9269L20.9549 17.7778C21.1295 17.8942 21.2458 18.0687 21.2458 18.2432C21.2458 18.4178 21.1295 18.7087 20.9549 18.8251Z" fill="#011E41"/>
</svg>
